<svg width="163" height="163" viewBox="0 0 163 163" fill="none" xmlns="http://www.w3.org/2000/svg">
<g clip-path="url(#clip0)">
<path d="M3.90743 61.4487C3.3355 62.1775 3.06657 63.0988 3.15658 64.0208C3.24659 64.9428 3.68861 65.7947 4.39069 66.3991C5.09277 67.0035 6.00085 67.314 6.92602 67.266C7.85119 67.2179 8.72222 66.815 9.3579 66.1411C20.3522 53.4109 36.1129 56.9806 45.799 61.0482L43.2944 66.3967C42.4559 68.193 42.5565 71.0686 43.5236 72.7913L53.0801 89.1769C54.2992 91.1486 56.0286 92.7543 58.0853 93.824L119.974 122.634C121.417 123.302 123.065 123.372 124.559 122.827C126.052 122.283 127.27 121.169 127.944 119.729L146.717 79.5606C148.11 76.5581 146.306 74.0886 143.311 72.6849L81.4166 43.8784C79.6292 43.0553 76.578 42.6733 74.6276 43.0436L55.4528 47.2575C53.5076 47.6248 51.2387 49.3951 50.4002 51.1914L48.8737 54.4499C35.8007 49.0262 16.7939 46.5337 3.90743 61.4487ZM65.1315 56.1318C66.2706 56.6632 67.2938 57.4138 68.1427 58.3407C68.9916 59.2677 69.6495 60.3528 70.0789 61.5341C70.5082 62.7154 70.7006 63.9697 70.6451 65.2254C70.5895 66.4811 70.287 67.7135 69.755 68.8523C68.6788 71.1574 66.732 72.9413 64.3419 73.8124C61.9518 74.6836 59.3136 74.5708 57.0066 73.4988C55.2002 72.657 53.702 71.272 52.7213 69.5371C51.7407 67.8023 51.3265 65.8044 51.5369 63.8227C53.1912 64.7363 54.2422 65.4143 54.4236 65.55C55.0969 66.013 55.9075 66.2334 56.7226 66.1754C57.5376 66.1173 58.3088 65.7841 58.9097 65.2304C59.5106 64.6766 59.9056 63.9352 60.0299 63.1276C60.1543 62.32 60.0007 61.4941 59.5943 60.7853C59.3384 60.3421 58.9736 59.9482 58.5257 59.6365C57.4745 58.9106 56.294 58.1631 54.9837 57.4287C56.3814 56.2788 58.0754 55.547 59.8707 55.3175C61.666 55.0881 63.4896 55.3704 65.1315 56.1318Z" fill="#EEEEEE"/>
</g>
<defs>
<clipPath id="clip0">
<rect width="119" height="119" fill="white" transform="translate(59.5 162.557) rotate(-120)"/>
</clipPath>
</defs>
</svg>
