<svg width="115" height="162" viewBox="0 0 115 162" fill="none" xmlns="http://www.w3.org/2000/svg">
<g filter="url(#filter0_d)">
<mask id="path-1-inside-1" fill="white">
<path d="M91.67 134.176C91.1309 133.918 90.5841 133.789 90.0294 133.789C88.7637 133.789 87.9434 134.305 87.5684 135.336C87.4278 135.711 87.3575 136.215 87.3575 136.848V141.5H83.5137V130.625H87.3575V132.406C87.7637 131.773 88.2012 131.316 88.67 131.035C89.3028 130.66 90.0528 130.473 90.92 130.473C91.1231 130.473 91.3731 130.484 91.67 130.508V134.176Z"/>
<path d="M106.119 141.5H102.275V140.293C101.908 140.754 101.537 141.09 101.162 141.301C100.505 141.668 99.7594 141.852 98.9234 141.852C97.5719 141.852 96.3688 141.387 95.3141 140.457C94.0563 139.348 93.4273 137.879 93.4273 136.051C93.4273 134.191 94.0719 132.707 95.3609 131.598C96.3844 130.715 97.5602 130.273 98.8883 130.273C99.6617 130.273 100.388 130.438 101.068 130.766C101.459 130.953 101.861 131.262 102.275 131.691V130.625H106.119V141.5ZM102.392 136.062C102.392 135.375 102.15 134.793 101.666 134.316C101.181 133.832 100.595 133.59 99.9078 133.59C99.1422 133.59 98.5133 133.879 98.0211 134.457C97.6227 134.926 97.4234 135.461 97.4234 136.062C97.4234 136.664 97.6227 137.199 98.0211 137.668C98.5055 138.246 99.1344 138.535 99.9078 138.535C100.603 138.535 101.189 138.297 101.666 137.82C102.15 137.344 102.392 136.758 102.392 136.062Z"/>
<path d="M22.0859 131.865C24.3385 131.865 25.8066 132.855 26.4902 134.834C26.7311 135.524 26.8516 136.266 26.8516 137.061C26.8516 138.727 26.347 140.273 25.3379 141.699L22.5449 140.215C23.4824 139.173 23.9512 138.154 23.9512 137.158C23.9512 136.709 23.847 136.328 23.6387 136.016C23.4043 135.651 23.0723 135.469 22.6426 135.469C22.252 135.469 21.9264 135.671 21.666 136.074C21.4707 136.374 21.2721 136.878 21.0703 137.588C20.8164 138.447 20.6406 138.988 20.543 139.209C20.3932 139.561 20.2175 139.86 20.0156 140.107C19.4297 140.817 18.5443 141.172 17.3594 141.172C16.1224 141.172 15.097 140.804 14.2832 140.068C13.3262 139.209 12.8477 138.063 12.8477 136.631C12.8477 135.192 13.209 133.783 13.9316 132.402L16.627 133.789C16.041 134.544 15.7481 135.306 15.7481 136.074C15.7481 136.445 15.8425 136.777 16.0313 137.07C16.2461 137.402 16.5326 137.568 16.8906 137.568C17.2422 137.568 17.5449 137.35 17.7988 136.914C17.916 136.719 18.1178 136.133 18.4043 135.156C18.7624 133.932 19.2702 133.06 19.9277 132.539C20.4876 132.09 21.207 131.865 22.0859 131.865Z"/>
<path d="M16.0703 119.177V122.048H26.5V125.515H16.0703V128.337H13.1699L13.1699 119.177H16.0703Z"/>
<path d="M20.8555 103.413C21.6563 103.413 22.3398 103.478 22.9063 103.609C23.7852 103.81 24.5859 104.292 25.3086 105.054C26.3307 106.135 26.8418 107.58 26.8418 109.39C26.8418 111.232 26.321 112.671 25.2793 113.706C24.7324 114.253 24.0456 114.627 23.2188 114.829C22.6328 114.973 21.8451 115.044 20.8555 115.044H13.1699V111.577H20.3867C20.9661 111.577 21.3991 111.568 21.6855 111.548C22.5905 111.483 23.222 111.07 23.5801 110.308C23.7298 109.995 23.8047 109.65 23.8047 109.273C23.8047 108.426 23.5085 107.788 22.916 107.359C22.4798 107.04 21.6367 106.88 20.3867 106.88H13.1699L13.1699 103.413H20.8555Z"/>
<path d="M19.8301 86.3211C21.2168 86.3211 22.5026 86.741 23.6875 87.5808C24.8659 88.4142 25.6829 89.4819 26.1387 90.784C26.3796 91.4741 26.5 92.1772 26.5 92.8933V98.0105H13.1699L13.1699 92.8933C13.1699 91.6433 13.5182 90.4845 14.2148 89.4168C14.8919 88.3686 15.7969 87.5646 16.9297 87.0047C17.8672 86.5489 18.834 86.3211 19.8301 86.3211ZM19.8301 89.9246C18.9121 89.9246 18.1113 90.1818 17.4277 90.6961C16.5228 91.3797 16.0703 92.3985 16.0703 93.7527V94.5437H23.5996V93.7527C23.5996 92.392 23.1471 91.3732 22.2422 90.6961C21.5521 90.1818 20.748 89.9246 19.8301 89.9246Z"/>
<path d="M26.5 78.0375V81.5043H13.1699V78.0375H26.5Z"/>
<path d="M19.8789 58.4746C21.6888 58.4746 23.2773 59.0768 24.6445 60.2812C26.2005 61.6549 26.9785 63.5137 26.9785 65.8574C26.9785 68.1946 26.2005 70.0501 24.6445 71.4238C23.2773 72.6282 21.6888 73.2305 19.8789 73.2305C19.0521 73.2305 18.2057 73.0677 17.3398 72.7422C16.4674 72.4167 15.722 71.9805 15.1035 71.4336C13.5475 70.0599 12.7695 68.2012 12.7695 65.8574C12.7695 63.5137 13.5475 61.6549 15.1035 60.2812C16.4707 59.0768 18.0625 58.4746 19.8789 58.4746ZM19.8789 62.0781C18.9414 62.0781 18.1309 62.3776 17.4473 62.9766C16.5749 63.7448 16.1387 64.7051 16.1387 65.8574C16.1387 66.6517 16.3633 67.3711 16.8125 68.0156C17.2552 68.6601 17.8477 69.1191 18.5898 69.3926C19.013 69.5488 19.4427 69.6269 19.8789 69.6269C20.7773 69.6269 21.5814 69.3275 22.291 68.7285C23.1699 67.9863 23.6094 67.0293 23.6094 65.8574C23.6094 64.6855 23.1732 63.7253 22.3008 62.9766C21.6042 62.3776 20.7969 62.0781 19.8789 62.0781Z"/>
<path d="M101.3 7.5H102.9C103.112 7.5 103.316 7.58428 103.466 7.73431C103.616 7.88434 103.7 8.08782 103.7 8.3V9.1C103.7 9.436 103.5 9.72 103.204 9.84L103.7 11.5H102.9L102.42 9.9H102.1V11.5H101.3V7.5ZM102.1 8.3V9.1H102.9V8.3H102.1ZM102.5 5.5C103.025 5.5 103.545 5.60346 104.031 5.80448C104.516 6.0055 104.957 6.30013 105.328 6.67157C105.7 7.043 105.994 7.48396 106.196 7.96926C106.397 8.45456 106.5 8.97471 106.5 9.5C106.5 10.5609 106.079 11.5783 105.328 12.3284C104.578 13.0786 103.561 13.5 102.5 13.5C101.975 13.5 101.455 13.3965 100.969 13.1955C100.484 12.9945 100.043 12.6999 99.6716 12.3284C98.9214 11.5783 98.5 10.5609 98.5 9.5C98.5 8.43913 98.9214 7.42171 99.6716 6.67157C100.422 5.92142 101.439 5.5 102.5 5.5ZM102.5 6.3C101.651 6.3 100.837 6.63714 100.237 7.23725C99.6371 7.83737 99.3 8.6513 99.3 9.5C99.3 11.264 100.732 12.7 102.5 12.7C103.349 12.7 104.163 12.3629 104.763 11.7627C105.363 11.1626 105.7 10.3487 105.7 9.5C105.7 8.6513 105.363 7.83737 104.763 7.23725C104.163 6.63714 103.349 6.3 102.5 6.3Z"/>
<path fill-rule="evenodd" clip-rule="evenodd" d="M19.5 0.376648C12.5964 0.376648 7 5.97309 7 12.8766V138.62C7 145.51 12.5752 151.101 19.4651 151.12L99.4651 151.343C106.382 151.362 112 145.76 112 138.843V12.8766C112 5.97309 106.404 0.376648 99.5 0.376648H19.5ZM8 12.8766C8 6.52537 13.1487 1.37665 19.5 1.37665H69C67 4.97665 66.2212 9.28709 66.0545 10.6204C65.1795 11.1204 63.2 12.1103 60.6631 13.3788C53.053 17.1843 40.4273 23.4978 37.5545 26.6204C36.5545 27.6204 35.1545 32.4204 29.5545 59.6204C29.1545 62.8204 31.0545 85.2871 32.0545 96.1204C32.3878 97.7871 34.0545 103.82 38.0545 114.62V119.12L36.5545 125.12L34.5545 131.62V150.162L79 150.286C79.2047 149.331 79.4639 148.256 79.661 147.381C80.9081 141.846 81.8498 137.665 80.5545 131.62C80.5167 131.444 80.4719 131.26 80.4205 131.069V131.002H80.4021C78.7763 125.088 70.9139 112.41 67.0545 106.62L66.5175 103.877L66.5136 103.857C66.083 100.864 66.5545 96.6204 66.5545 96.6204C66.8878 94.6204 69.2545 87.5204 76.0545 75.1204C84.7926 60.557 87.8748 51.1877 89.9119 44.9953L89.9126 44.9933L89.9132 44.9914C90.3234 43.7443 90.6913 42.6262 91.0545 41.6204C90.6545 26.0204 88.5545 16.1204 87.5545 13.1204C87.5545 11.1204 87.6545 7.12042 88.0545 7.12042C89.543 6.7483 91.3882 3.39578 92.3091 1.72253L92.3115 1.7182C92.3796 1.59449 92.4426 1.48 92.5 1.37665H99.5C105.851 1.37665 111 6.52537 111 12.8766V138.843C111 145.207 105.832 150.361 99.4679 150.343L19.4679 150.12C13.1292 150.102 8 144.959 8 138.62V12.8766ZM80.4021 131.002H76.5767V137.166C76.5767 137.845 76.4127 138.345 76.0845 138.666C75.733 139.009 75.2486 139.181 74.6314 139.181C74.0064 139.181 73.5181 139.009 73.1666 138.666C72.8384 138.345 72.6744 137.845 72.6744 137.166V131.002H68.8306V137.904C68.8306 139.052 69.1431 139.978 69.7681 140.681C70.7525 141.791 72.3736 142.345 74.6314 142.345C75.7798 142.345 76.7525 142.209 77.5494 141.935C79.4634 141.271 80.4205 139.927 80.4205 137.904V131.069L80.4021 131.002ZM80 5.12042C79.1667 6.28709 76.4 9.72042 72 14.1204C69.1667 15.2871 61.9 18.8204 55.5 23.6204C49.1 28.4204 44.8333 30.6204 43.5 31.1204L43 39.1204L44 40.1204C46.4 40.1204 48 39.1204 48.5 38.6204C48.3333 37.4538 49.4 34.5204 55 32.1204H63.5C66 32.9538 71.4 36.2204 73 42.6204C73.9424 46.3902 72.8864 47.4954 71.977 48.4472C70.9565 49.5152 70.1205 50.3902 72.5 54.6204C72.6667 54.9538 72.5 55.6204 70.5 55.6204V57.6204L69 58.1204V59.6204L68 60.6204V62.6204C67.5 63.1204 66 63.8204 64 62.6204C62 61.4204 60.1667 61.1204 59.5 61.1204C59 61.2871 58 62.4204 58 65.6204C58.5 66.1204 60.3 67.5204 63.5 69.1204C64.5374 68.3271 65.5526 67.3103 66.7662 66.0946C68.8671 63.9901 71.5632 61.2896 76 58.1204C76.5933 56.9338 76.8346 56.1432 77.1025 55.2656C77.7374 53.185 78.5216 50.6155 84.5 41.1204C84 33.1204 82.9 16.2204 82.5 12.6204C82.1471 9.44395 81.7941 9.2571 81.4412 9.07025C81.2941 8.99239 81.1471 8.91454 81 8.62042C80.6 7.82042 80.8333 6.28709 81 5.62042L80 5.12042ZM41 51.1204C41.3333 53.1204 42 57.5204 42 59.1204C42 60.7204 43.3333 61.7871 44 62.1204L48 56.1204C46.5 55.4538 43 52.1204 43 52.1204C43 52.1204 41.8333 50.4538 41.5 50.6204L41 51.1204ZM41.9727 134.166H44.6797V131.002H41.9727V129.83C41.9727 128.939 42.043 128.381 42.1836 128.154C42.4258 127.756 42.8086 127.556 43.332 127.556C43.707 127.556 44.1562 127.701 44.6797 127.99V124.638C44.1094 124.373 43.543 124.24 42.9805 124.24C41.5664 124.24 40.3555 124.779 39.3477 125.857C38.5352 126.724 38.1289 127.959 38.1289 129.56V131.002H36.7578V134.166H38.1289V141.877H41.9727V134.166ZM50.4214 131.002V141.877H46.5777V131.002H50.4214ZM50.0347 128.365C50.4566 127.943 50.6675 127.427 50.6675 126.818C50.6675 126.216 50.4566 125.709 50.0347 125.295C49.6128 124.873 49.1011 124.662 48.4995 124.662C47.898 124.662 47.3862 124.873 46.9644 125.295C46.5503 125.709 46.3433 126.216 46.3433 126.818C46.3433 127.42 46.5503 127.931 46.9644 128.353C47.3862 128.775 47.898 128.986 48.4995 128.986C49.1089 128.986 49.6206 128.779 50.0347 128.365ZM65.7139 141.127C65.7139 142.08 65.6475 142.849 65.5147 143.435C65.3037 144.373 64.7569 145.213 63.8741 145.955C62.7569 146.892 61.2725 147.361 59.4209 147.361C57.4834 147.361 55.9405 146.849 54.792 145.826C54.0264 145.146 53.5381 144.435 53.3272 143.693C53.3037 143.615 53.2725 143.451 53.2334 143.201H57.5577C57.6827 143.56 57.8506 143.818 58.0616 143.974C58.4053 144.232 58.8428 144.361 59.3741 144.361C60.2647 144.361 60.9483 144.045 61.4248 143.412C61.7217 143.013 61.8702 142.443 61.8702 141.701V140.67C61.4092 141.091 61.0225 141.388 60.71 141.56C60.0616 141.92 59.2959 142.099 58.4131 142.099C57.3037 142.099 56.3116 141.814 55.4366 141.244C54.5381 140.658 53.8936 139.857 53.503 138.841C53.2373 138.154 53.1045 137.408 53.1045 136.603C53.1045 134.822 53.6709 133.373 54.8037 132.256C55.8584 131.216 57.128 130.697 58.6123 130.697C59.4014 130.697 60.1045 130.857 60.7217 131.177C61.0889 131.373 61.4717 131.693 61.8702 132.138V131.002H65.7139V141.127ZM61.3428 134.611C61.8194 135.111 62.0577 135.709 62.0577 136.404C62.0577 137.099 61.8155 137.697 61.3311 138.197C60.8545 138.689 60.2725 138.935 59.585 138.935C58.8897 138.935 58.2998 138.689 57.8155 138.197C57.3389 137.697 57.1006 137.099 57.1006 136.404C57.1006 135.779 57.2959 135.228 57.6866 134.752C58.1787 134.158 58.8116 133.861 59.585 133.861C60.2803 133.861 60.8662 134.111 61.3428 134.611Z"/>
</mask>
<path d="M91.67 134.176C91.1309 133.918 90.5841 133.789 90.0294 133.789C88.7637 133.789 87.9434 134.305 87.5684 135.336C87.4278 135.711 87.3575 136.215 87.3575 136.848V141.5H83.5137V130.625H87.3575V132.406C87.7637 131.773 88.2012 131.316 88.67 131.035C89.3028 130.66 90.0528 130.473 90.92 130.473C91.1231 130.473 91.3731 130.484 91.67 130.508V134.176Z" fill="#E67817"/>
<path d="M106.119 141.5H102.275V140.293C101.908 140.754 101.537 141.09 101.162 141.301C100.505 141.668 99.7594 141.852 98.9234 141.852C97.5719 141.852 96.3688 141.387 95.3141 140.457C94.0563 139.348 93.4273 137.879 93.4273 136.051C93.4273 134.191 94.0719 132.707 95.3609 131.598C96.3844 130.715 97.5602 130.273 98.8883 130.273C99.6617 130.273 100.388 130.438 101.068 130.766C101.459 130.953 101.861 131.262 102.275 131.691V130.625H106.119V141.5ZM102.392 136.062C102.392 135.375 102.15 134.793 101.666 134.316C101.181 133.832 100.595 133.59 99.9078 133.59C99.1422 133.59 98.5133 133.879 98.0211 134.457C97.6227 134.926 97.4234 135.461 97.4234 136.062C97.4234 136.664 97.6227 137.199 98.0211 137.668C98.5055 138.246 99.1344 138.535 99.9078 138.535C100.603 138.535 101.189 138.297 101.666 137.82C102.15 137.344 102.392 136.758 102.392 136.062Z" fill="#E67817"/>
<path d="M22.0859 131.865C24.3385 131.865 25.8066 132.855 26.4902 134.834C26.7311 135.524 26.8516 136.266 26.8516 137.061C26.8516 138.727 26.347 140.273 25.3379 141.699L22.5449 140.215C23.4824 139.173 23.9512 138.154 23.9512 137.158C23.9512 136.709 23.847 136.328 23.6387 136.016C23.4043 135.651 23.0723 135.469 22.6426 135.469C22.252 135.469 21.9264 135.671 21.666 136.074C21.4707 136.374 21.2721 136.878 21.0703 137.588C20.8164 138.447 20.6406 138.988 20.543 139.209C20.3932 139.561 20.2175 139.86 20.0156 140.107C19.4297 140.817 18.5443 141.172 17.3594 141.172C16.1224 141.172 15.097 140.804 14.2832 140.068C13.3262 139.209 12.8477 138.063 12.8477 136.631C12.8477 135.192 13.209 133.783 13.9316 132.402L16.627 133.789C16.041 134.544 15.7481 135.306 15.7481 136.074C15.7481 136.445 15.8425 136.777 16.0313 137.07C16.2461 137.402 16.5326 137.568 16.8906 137.568C17.2422 137.568 17.5449 137.35 17.7988 136.914C17.916 136.719 18.1178 136.133 18.4043 135.156C18.7624 133.932 19.2702 133.06 19.9277 132.539C20.4876 132.09 21.207 131.865 22.0859 131.865Z" fill="#E67817"/>
<path d="M16.0703 119.177V122.048H26.5V125.515H16.0703V128.337H13.1699L13.1699 119.177H16.0703Z" fill="#E67817"/>
<path d="M20.8555 103.413C21.6563 103.413 22.3398 103.478 22.9063 103.609C23.7852 103.81 24.5859 104.292 25.3086 105.054C26.3307 106.135 26.8418 107.58 26.8418 109.39C26.8418 111.232 26.321 112.671 25.2793 113.706C24.7324 114.253 24.0456 114.627 23.2188 114.829C22.6328 114.973 21.8451 115.044 20.8555 115.044H13.1699V111.577H20.3867C20.9661 111.577 21.3991 111.568 21.6855 111.548C22.5905 111.483 23.222 111.07 23.5801 110.308C23.7298 109.995 23.8047 109.65 23.8047 109.273C23.8047 108.426 23.5085 107.788 22.916 107.359C22.4798 107.04 21.6367 106.88 20.3867 106.88H13.1699L13.1699 103.413H20.8555Z" fill="#E67817"/>
<path d="M19.8301 86.3211C21.2168 86.3211 22.5026 86.741 23.6875 87.5808C24.8659 88.4142 25.6829 89.4819 26.1387 90.784C26.3796 91.4741 26.5 92.1772 26.5 92.8933V98.0105H13.1699L13.1699 92.8933C13.1699 91.6433 13.5182 90.4845 14.2148 89.4168C14.8919 88.3686 15.7969 87.5646 16.9297 87.0047C17.8672 86.5489 18.834 86.3211 19.8301 86.3211ZM19.8301 89.9246C18.9121 89.9246 18.1113 90.1818 17.4277 90.6961C16.5228 91.3797 16.0703 92.3985 16.0703 93.7527V94.5437H23.5996V93.7527C23.5996 92.392 23.1471 91.3732 22.2422 90.6961C21.5521 90.1818 20.748 89.9246 19.8301 89.9246Z" fill="#E67817"/>
<path d="M26.5 78.0375V81.5043H13.1699V78.0375H26.5Z" fill="#E67817"/>
<path d="M19.8789 58.4746C21.6888 58.4746 23.2773 59.0768 24.6445 60.2812C26.2005 61.6549 26.9785 63.5137 26.9785 65.8574C26.9785 68.1946 26.2005 70.0501 24.6445 71.4238C23.2773 72.6282 21.6888 73.2305 19.8789 73.2305C19.0521 73.2305 18.2057 73.0677 17.3398 72.7422C16.4674 72.4167 15.722 71.9805 15.1035 71.4336C13.5475 70.0599 12.7695 68.2012 12.7695 65.8574C12.7695 63.5137 13.5475 61.6549 15.1035 60.2812C16.4707 59.0768 18.0625 58.4746 19.8789 58.4746ZM19.8789 62.0781C18.9414 62.0781 18.1309 62.3776 17.4473 62.9766C16.5749 63.7448 16.1387 64.7051 16.1387 65.8574C16.1387 66.6517 16.3633 67.3711 16.8125 68.0156C17.2552 68.6601 17.8477 69.1191 18.5898 69.3926C19.013 69.5488 19.4427 69.6269 19.8789 69.6269C20.7773 69.6269 21.5814 69.3275 22.291 68.7285C23.1699 67.9863 23.6094 67.0293 23.6094 65.8574C23.6094 64.6855 23.1732 63.7253 22.3008 62.9766C21.6042 62.3776 20.7969 62.0781 19.8789 62.0781Z" fill="#E67817"/>
<path d="M101.3 7.5H102.9C103.112 7.5 103.316 7.58428 103.466 7.73431C103.616 7.88434 103.7 8.08782 103.7 8.3V9.1C103.7 9.436 103.5 9.72 103.204 9.84L103.7 11.5H102.9L102.42 9.9H102.1V11.5H101.3V7.5ZM102.1 8.3V9.1H102.9V8.3H102.1ZM102.5 5.5C103.025 5.5 103.545 5.60346 104.031 5.80448C104.516 6.0055 104.957 6.30013 105.328 6.67157C105.7 7.043 105.994 7.48396 106.196 7.96926C106.397 8.45456 106.5 8.97471 106.5 9.5C106.5 10.5609 106.079 11.5783 105.328 12.3284C104.578 13.0786 103.561 13.5 102.5 13.5C101.975 13.5 101.455 13.3965 100.969 13.1955C100.484 12.9945 100.043 12.6999 99.6716 12.3284C98.9214 11.5783 98.5 10.5609 98.5 9.5C98.5 8.43913 98.9214 7.42171 99.6716 6.67157C100.422 5.92142 101.439 5.5 102.5 5.5ZM102.5 6.3C101.651 6.3 100.837 6.63714 100.237 7.23725C99.6371 7.83737 99.3 8.6513 99.3 9.5C99.3 11.264 100.732 12.7 102.5 12.7C103.349 12.7 104.163 12.3629 104.763 11.7627C105.363 11.1626 105.7 10.3487 105.7 9.5C105.7 8.6513 105.363 7.83737 104.763 7.23725C104.163 6.63714 103.349 6.3 102.5 6.3Z" fill="#E67817"/>
<path fill-rule="evenodd" clip-rule="evenodd" d="M19.5 0.376648C12.5964 0.376648 7 5.97309 7 12.8766V138.62C7 145.51 12.5752 151.101 19.4651 151.12L99.4651 151.343C106.382 151.362 112 145.76 112 138.843V12.8766C112 5.97309 106.404 0.376648 99.5 0.376648H19.5ZM8 12.8766C8 6.52537 13.1487 1.37665 19.5 1.37665H69C67 4.97665 66.2212 9.28709 66.0545 10.6204C65.1795 11.1204 63.2 12.1103 60.6631 13.3788C53.053 17.1843 40.4273 23.4978 37.5545 26.6204C36.5545 27.6204 35.1545 32.4204 29.5545 59.6204C29.1545 62.8204 31.0545 85.2871 32.0545 96.1204C32.3878 97.7871 34.0545 103.82 38.0545 114.62V119.12L36.5545 125.12L34.5545 131.62V150.162L79 150.286C79.2047 149.331 79.4639 148.256 79.661 147.381C80.9081 141.846 81.8498 137.665 80.5545 131.62C80.5167 131.444 80.4719 131.26 80.4205 131.069V131.002H80.4021C78.7763 125.088 70.9139 112.41 67.0545 106.62L66.5175 103.877L66.5136 103.857C66.083 100.864 66.5545 96.6204 66.5545 96.6204C66.8878 94.6204 69.2545 87.5204 76.0545 75.1204C84.7926 60.557 87.8748 51.1877 89.9119 44.9953L89.9126 44.9933L89.9132 44.9914C90.3234 43.7443 90.6913 42.6262 91.0545 41.6204C90.6545 26.0204 88.5545 16.1204 87.5545 13.1204C87.5545 11.1204 87.6545 7.12042 88.0545 7.12042C89.543 6.7483 91.3882 3.39578 92.3091 1.72253L92.3115 1.7182C92.3796 1.59449 92.4426 1.48 92.5 1.37665H99.5C105.851 1.37665 111 6.52537 111 12.8766V138.843C111 145.207 105.832 150.361 99.4679 150.343L19.4679 150.12C13.1292 150.102 8 144.959 8 138.62V12.8766ZM80.4021 131.002H76.5767V137.166C76.5767 137.845 76.4127 138.345 76.0845 138.666C75.733 139.009 75.2486 139.181 74.6314 139.181C74.0064 139.181 73.5181 139.009 73.1666 138.666C72.8384 138.345 72.6744 137.845 72.6744 137.166V131.002H68.8306V137.904C68.8306 139.052 69.1431 139.978 69.7681 140.681C70.7525 141.791 72.3736 142.345 74.6314 142.345C75.7798 142.345 76.7525 142.209 77.5494 141.935C79.4634 141.271 80.4205 139.927 80.4205 137.904V131.069L80.4021 131.002ZM80 5.12042C79.1667 6.28709 76.4 9.72042 72 14.1204C69.1667 15.2871 61.9 18.8204 55.5 23.6204C49.1 28.4204 44.8333 30.6204 43.5 31.1204L43 39.1204L44 40.1204C46.4 40.1204 48 39.1204 48.5 38.6204C48.3333 37.4538 49.4 34.5204 55 32.1204H63.5C66 32.9538 71.4 36.2204 73 42.6204C73.9424 46.3902 72.8864 47.4954 71.977 48.4472C70.9565 49.5152 70.1205 50.3902 72.5 54.6204C72.6667 54.9538 72.5 55.6204 70.5 55.6204V57.6204L69 58.1204V59.6204L68 60.6204V62.6204C67.5 63.1204 66 63.8204 64 62.6204C62 61.4204 60.1667 61.1204 59.5 61.1204C59 61.2871 58 62.4204 58 65.6204C58.5 66.1204 60.3 67.5204 63.5 69.1204C64.5374 68.3271 65.5526 67.3103 66.7662 66.0946C68.8671 63.9901 71.5632 61.2896 76 58.1204C76.5933 56.9338 76.8346 56.1432 77.1025 55.2656C77.7374 53.185 78.5216 50.6155 84.5 41.1204C84 33.1204 82.9 16.2204 82.5 12.6204C82.1471 9.44395 81.7941 9.2571 81.4412 9.07025C81.2941 8.99239 81.1471 8.91454 81 8.62042C80.6 7.82042 80.8333 6.28709 81 5.62042L80 5.12042ZM41 51.1204C41.3333 53.1204 42 57.5204 42 59.1204C42 60.7204 43.3333 61.7871 44 62.1204L48 56.1204C46.5 55.4538 43 52.1204 43 52.1204C43 52.1204 41.8333 50.4538 41.5 50.6204L41 51.1204ZM41.9727 134.166H44.6797V131.002H41.9727V129.83C41.9727 128.939 42.043 128.381 42.1836 128.154C42.4258 127.756 42.8086 127.556 43.332 127.556C43.707 127.556 44.1562 127.701 44.6797 127.99V124.638C44.1094 124.373 43.543 124.24 42.9805 124.24C41.5664 124.24 40.3555 124.779 39.3477 125.857C38.5352 126.724 38.1289 127.959 38.1289 129.56V131.002H36.7578V134.166H38.1289V141.877H41.9727V134.166ZM50.4214 131.002V141.877H46.5777V131.002H50.4214ZM50.0347 128.365C50.4566 127.943 50.6675 127.427 50.6675 126.818C50.6675 126.216 50.4566 125.709 50.0347 125.295C49.6128 124.873 49.1011 124.662 48.4995 124.662C47.898 124.662 47.3862 124.873 46.9644 125.295C46.5503 125.709 46.3433 126.216 46.3433 126.818C46.3433 127.42 46.5503 127.931 46.9644 128.353C47.3862 128.775 47.898 128.986 48.4995 128.986C49.1089 128.986 49.6206 128.779 50.0347 128.365ZM65.7139 141.127C65.7139 142.08 65.6475 142.849 65.5147 143.435C65.3037 144.373 64.7569 145.213 63.8741 145.955C62.7569 146.892 61.2725 147.361 59.4209 147.361C57.4834 147.361 55.9405 146.849 54.792 145.826C54.0264 145.146 53.5381 144.435 53.3272 143.693C53.3037 143.615 53.2725 143.451 53.2334 143.201H57.5577C57.6827 143.56 57.8506 143.818 58.0616 143.974C58.4053 144.232 58.8428 144.361 59.3741 144.361C60.2647 144.361 60.9483 144.045 61.4248 143.412C61.7217 143.013 61.8702 142.443 61.8702 141.701V140.67C61.4092 141.091 61.0225 141.388 60.71 141.56C60.0616 141.92 59.2959 142.099 58.4131 142.099C57.3037 142.099 56.3116 141.814 55.4366 141.244C54.5381 140.658 53.8936 139.857 53.503 138.841C53.2373 138.154 53.1045 137.408 53.1045 136.603C53.1045 134.822 53.6709 133.373 54.8037 132.256C55.8584 131.216 57.128 130.697 58.6123 130.697C59.4014 130.697 60.1045 130.857 60.7217 131.177C61.0889 131.373 61.4717 131.693 61.8702 132.138V131.002H65.7139V141.127ZM61.3428 134.611C61.8194 135.111 62.0577 135.709 62.0577 136.404C62.0577 137.099 61.8155 137.697 61.3311 138.197C60.8545 138.689 60.2725 138.935 59.585 138.935C58.8897 138.935 58.2998 138.689 57.8155 138.197C57.3389 137.697 57.1006 137.099 57.1006 136.404C57.1006 135.779 57.2959 135.228 57.6866 134.752C58.1787 134.158 58.8116 133.861 59.585 133.861C60.2803 133.861 60.8662 134.111 61.3428 134.611Z" fill="#E67817"/>
<path d="M66.5175 103.877L66.6615 103.835L66.6615 103.835L66.5175 103.877ZM19.5 1.52665H99.5V1.22665H19.5V1.52665ZM69 1.52665H92.5V1.22665H69V1.52665ZM80.2575 131.041C80.2636 131.064 80.2697 131.086 80.2756 131.108L80.5653 131.03C80.5592 131.007 80.553 130.985 80.5468 130.962L80.2575 131.041ZM66.3652 103.878C66.3668 103.89 66.3693 103.904 66.3736 103.919L66.6615 103.835L66.6621 103.835L66.3652 103.878ZM66.3736 103.919C66.375 103.924 66.3781 103.934 66.3838 103.945C66.3873 103.952 66.4022 103.982 66.4369 104.005C66.4572 104.018 66.4859 104.029 66.5207 104.029C66.5551 104.029 66.5829 104.017 66.6019 104.004C66.6346 103.983 66.6492 103.954 66.6528 103.948C66.6624 103.929 66.6662 103.912 66.6669 103.909C66.6685 103.902 66.6695 103.896 66.6702 103.892C66.6727 103.876 66.6745 103.855 66.676 103.835C66.6791 103.794 66.6823 103.736 66.6853 103.683C66.6884 103.627 66.6914 103.577 66.6943 103.545C66.6962 103.524 66.6969 103.525 66.6946 103.534C66.6946 103.534 66.6901 103.553 66.6765 103.574C66.6708 103.583 66.6489 103.615 66.6039 103.632C66.5432 103.655 66.4881 103.634 66.4565 103.607C66.4321 103.587 66.4209 103.565 66.4177 103.558C66.4131 103.549 66.4107 103.541 66.4096 103.537C66.4074 103.53 66.4066 103.525 66.4065 103.525L66.7025 103.475C66.7016 103.47 66.7 103.461 66.697 103.451C66.6955 103.446 66.6926 103.437 66.6877 103.427C66.684 103.42 66.6724 103.397 66.6476 103.376C66.6156 103.35 66.5601 103.328 66.499 103.351C66.4536 103.368 66.4313 103.401 66.4252 103.41C66.4108 103.432 66.4056 103.454 66.4047 103.457C66.3992 103.478 66.3968 103.504 66.3955 103.518C66.3921 103.556 66.3888 103.612 66.3858 103.666C66.3826 103.721 66.3797 103.775 66.3768 103.812C66.3761 103.822 66.3755 103.829 66.3749 103.836C66.3746 103.839 66.3743 103.841 66.3741 103.843C66.374 103.844 66.3739 103.845 66.3738 103.845C66.3738 103.845 66.3738 103.846 66.3737 103.846C66.3737 103.846 66.3737 103.846 66.3737 103.846C66.3737 103.846 66.3737 103.846 66.3737 103.846C66.3737 103.846 66.3737 103.846 66.3737 103.846C66.3737 103.846 66.3737 103.846 66.3738 103.846C66.3738 103.846 66.3738 103.845 66.3739 103.845C66.374 103.844 66.3743 103.843 66.3748 103.841C66.3748 103.841 66.3778 103.826 66.3867 103.809C66.3899 103.803 66.4042 103.775 66.4365 103.754C66.4553 103.741 66.4829 103.73 66.5172 103.729C66.5517 103.729 66.5802 103.74 66.6004 103.753C66.6347 103.776 66.6493 103.805 66.6524 103.812C66.6577 103.822 66.6604 103.831 66.6615 103.835L66.3736 103.919ZM99.4651 151.343L99.4643 151.643L99.4643 151.643L99.4651 151.343ZM19.4651 151.12L19.4659 150.82L19.4659 150.82L19.4651 151.12ZM19.4679 150.12L19.4687 149.82L19.4687 149.82L19.4679 150.12ZM99.4679 150.343L99.4671 150.643L99.4671 150.643L99.4679 150.343ZM34.5545 150.162H34.2545V150.461L34.5537 150.462L34.5545 150.162ZM34.5545 131.62L34.2678 131.532L34.2545 131.575V131.62H34.5545ZM36.5545 125.12L36.8412 125.209L36.8436 125.201L36.8455 125.193L36.5545 125.12ZM38.0545 119.12L38.3455 119.193L38.3545 119.157V119.12H38.0545ZM38.0545 114.62H38.3545V114.567L38.3358 114.516L38.0545 114.62ZM32.0545 96.1204L31.7558 96.148L31.7572 96.1637L31.7603 96.1792L32.0545 96.1204ZM29.5545 59.6204L29.2607 59.5599L29.2583 59.5715L29.2568 59.5832L29.5545 59.6204ZM37.5545 26.6204L37.7668 26.8327L37.7753 26.8235L37.5545 26.6204ZM66.0545 10.6204L66.2033 10.8809L66.3336 10.8065L66.3522 10.6576L66.0545 10.6204ZM69 1.37665L69.2622 1.52234L69.5099 1.07665H69V1.37665ZM92.5 1.37665V1.07665H92.3235L92.2378 1.23096L92.5 1.37665ZM88.0545 7.12042V7.42042H88.0914L88.1273 7.41147L88.0545 7.12042ZM87.5545 13.1204H87.2545V13.1691L87.2699 13.2153L87.5545 13.1204ZM91.0545 41.6204L91.3367 41.7223L91.3558 41.6692L91.3544 41.6127L91.0545 41.6204ZM76.0545 75.1204L75.7971 74.966L75.7915 74.9762L76.0545 75.1204ZM66.5545 96.6204L66.2586 96.5711L66.2572 96.5792L66.2563 96.5873L66.5545 96.6204ZM66.5136 103.857L66.2167 103.9L66.2178 103.907L66.2192 103.914L66.5136 103.857ZM67.0545 106.62L66.7601 106.678L66.7716 106.737L66.8049 106.787L67.0545 106.62ZM80.5545 131.62L80.8478 131.558L80.8478 131.558L80.5545 131.62ZM79 150.286L78.9992 150.586L79.2424 150.587L79.2933 150.349L79 150.286ZM80 5.12042L80.1342 4.85209L79.9049 4.73745L79.7559 4.94605L80 5.12042ZM72 14.1204L72.1142 14.3978L72.1697 14.375L72.2121 14.3326L72 14.1204ZM55.5 23.6204L55.68 23.8604L55.68 23.8604L55.5 23.6204ZM43.5 31.1204L43.3947 30.8395L43.2127 30.9078L43.2006 31.1017L43.5 31.1204ZM43 39.1204L42.7006 39.1017L42.6921 39.2368L42.7879 39.3326L43 39.1204ZM44 40.1204L43.7879 40.3326L43.8757 40.4204H44V40.1204ZM48.5 38.6204L48.7121 38.8326L48.8182 38.7265L48.797 38.578L48.5 38.6204ZM55 32.1204V31.8204H54.9384L54.8818 31.8447L55 32.1204ZM63.5 32.1204L63.5949 31.8358L63.5487 31.8204H63.5V32.1204ZM73 42.6204L73.291 42.5477L73.291 42.5477L73 42.6204ZM72.5 54.6204L72.7683 54.4863L72.7651 54.4797L72.7615 54.4733L72.5 54.6204ZM70.5 55.6204V55.3204H70.2V55.6204H70.5ZM70.5 57.6204L70.5949 57.905L70.8 57.8367V57.6204H70.5ZM69 58.1204L68.9051 57.8358L68.7 57.9042V58.1204H69ZM69 59.6204L69.2121 59.8326L69.3 59.7447V59.6204H69ZM68 60.6204L67.7879 60.4083L67.7 60.4962V60.6204H68ZM68 62.6204L68.2121 62.8326L68.3 62.7447V62.6204H68ZM59.5 61.1204V60.8204H59.4513L59.4051 60.8358L59.5 61.1204ZM58 65.6204H57.7V65.7447L57.7879 65.8326L58 65.6204ZM63.5 69.1204L63.3658 69.3888L63.5334 69.4725L63.6822 69.3587L63.5 69.1204ZM76 58.1204L76.1744 58.3645L76.235 58.3212L76.2683 58.2546L76 58.1204ZM84.5 41.1204L84.7539 41.2803L84.8055 41.1983L84.7994 41.1017L84.5 41.1204ZM82.5 12.6204L82.7982 12.5873L82.7982 12.5873L82.5 12.6204ZM81 8.62042L81.2683 8.48626L81.2683 8.48626L81 8.62042ZM81 5.62042L81.291 5.69318L81.3494 5.45972L81.1342 5.35209L81 5.62042ZM41 51.1204L40.7879 50.9083L40.6787 51.0175L40.7041 51.1697L41 51.1204ZM44 62.1204L43.8658 62.3888L44.1027 62.5072L44.2496 62.2868L44 62.1204ZM48 56.1204L48.2496 56.2868L48.447 55.9908L48.1218 55.8463L48 56.1204ZM43 52.1204L42.7542 52.2925L42.7714 52.317L42.7931 52.3377L43 52.1204ZM41.5 50.6204L41.3658 50.3521L41.3223 50.3739L41.2879 50.4083L41.5 50.6204ZM44.6797 134.166V134.466H44.9797V134.166H44.6797ZM41.9727 134.166V133.866H41.6727V134.166H41.9727ZM41.9727 141.877V142.177H42.2727V141.877H41.9727ZM38.1289 141.877H37.8289V142.177H38.1289V141.877ZM38.1289 134.166H38.4289V133.866H38.1289V134.166ZM36.7578 134.166H36.4578V134.466H36.7578V134.166ZM36.7578 131.002V130.702H36.4578V131.002H36.7578ZM38.1289 131.002V131.302H38.4289V131.002H38.1289ZM39.3477 125.857L39.5666 126.062L39.5668 126.062L39.3477 125.857ZM44.6797 124.638H44.9797V124.447L44.8063 124.366L44.6797 124.638ZM44.6797 127.99L44.5347 128.253L44.9797 128.498V127.99H44.6797ZM42.1836 128.154L42.4385 128.312L42.44 128.31L42.1836 128.154ZM41.9727 131.002H41.6727V131.302H41.9727V131.002ZM44.6797 131.002H44.9797V130.702H44.6797V131.002ZM46.9644 128.353L46.7503 128.563L46.7522 128.565L46.9644 128.353ZM50.0347 125.295L49.8225 125.507L49.8245 125.509L50.0347 125.295ZM50.4214 141.877V142.177H50.7214V141.877H50.4214ZM46.5777 141.877H46.2777V142.177H46.5777V141.877ZM46.5777 131.002V130.702H46.2777V131.002H46.5777ZM50.4214 131.002H50.7214V130.702H50.4214V131.002ZM65.5147 143.435L65.2221 143.369L65.222 143.369L65.5147 143.435ZM63.8741 145.955L64.0669 146.185L64.0671 146.184L63.8741 145.955ZM54.792 145.826L54.9916 145.602L54.9912 145.602L54.792 145.826ZM53.3272 143.693L53.6158 143.611L53.6145 143.607L53.3272 143.693ZM53.2334 143.201V142.901H52.8829L52.937 143.247L53.2334 143.201ZM57.5577 143.201L57.841 143.102L57.7709 142.901H57.5577V143.201ZM58.0616 143.974L58.2416 143.734L58.2401 143.733L58.0616 143.974ZM61.4248 143.412L61.6645 143.592L61.6654 143.591L61.4248 143.412ZM61.8702 140.67H62.1702V139.988L61.6676 140.448L61.8702 140.67ZM60.71 141.56L60.5654 141.297L60.5646 141.298L60.71 141.56ZM55.4366 141.244L55.2727 141.495L55.2727 141.495L55.4366 141.244ZM53.503 138.841L53.783 138.734L53.7828 138.733L53.503 138.841ZM54.8037 132.256L54.5932 132.042L54.5931 132.042L54.8037 132.256ZM60.7217 131.177L60.8626 130.913L60.8599 130.911L60.7217 131.177ZM61.8702 132.138L61.6466 132.338L62.1702 132.924V132.138H61.8702ZM61.8702 131.002V130.702H61.5702V131.002H61.8702ZM65.7139 131.002H66.0139V130.702H65.7139V131.002ZM57.6866 134.752L57.4556 134.56L57.4545 134.561L57.6866 134.752ZM57.8155 138.197L57.5983 138.404L57.6016 138.407L57.8155 138.197ZM61.3311 138.197L61.1156 137.988L61.1156 137.988L61.3311 138.197ZM77.5494 141.935L77.6467 142.219L77.6477 142.219L77.5494 141.935ZM69.7681 140.681L69.9925 140.482L69.9924 140.482L69.7681 140.681ZM68.8306 131.002V130.702H68.5306V131.002H68.8306ZM72.6744 131.002H72.9744V130.702H72.6744V131.002ZM73.1666 138.666L73.3763 138.451L73.3761 138.451L73.1666 138.666ZM76.0845 138.666L75.875 138.451L75.8748 138.451L76.0845 138.666ZM76.5767 131.002V130.702H76.2767V131.002H76.5767ZM80.4205 131.002H80.7205V130.702H80.4205V131.002ZM91.67 134.176L91.5406 134.446L91.97 134.652V134.176H91.67ZM87.5684 135.336L87.8493 135.441L87.8504 135.438L87.5684 135.336ZM87.3575 141.5V141.8H87.6575V141.5H87.3575ZM83.5137 141.5H83.2137V141.8H83.5137V141.5ZM83.5137 130.625V130.325H83.2137V130.625H83.5137ZM87.3575 130.625H87.6575V130.325H87.3575V130.625ZM87.3575 132.406H87.0575V133.429L87.61 132.568L87.3575 132.406ZM88.67 131.035L88.5171 130.777L88.5156 130.778L88.67 131.035ZM91.67 130.508H91.97V130.231L91.6936 130.209L91.67 130.508ZM106.119 141.5V141.8H106.419V141.5H106.119ZM102.275 141.5H101.975V141.8H102.275V141.5ZM102.275 140.293H102.575V139.435L102.04 140.106L102.275 140.293ZM101.162 141.301L101.308 141.563L101.309 141.562L101.162 141.301ZM95.3141 140.457L95.1156 140.682L95.1157 140.682L95.3141 140.457ZM95.3609 131.598L95.5566 131.825L95.5569 131.825L95.3609 131.598ZM101.068 130.766L100.938 131.036L100.938 131.036L101.068 130.766ZM102.275 131.691L102.059 131.9L102.575 132.435V131.691H102.275ZM102.275 130.625V130.325H101.975V130.625H102.275ZM106.119 130.625H106.419V130.325H106.119V130.625ZM101.666 134.316L101.453 134.529L101.455 134.53L101.666 134.316ZM98.0211 134.457L97.7927 134.263L97.7925 134.263L98.0211 134.457ZM98.0211 137.668L98.2511 137.475L98.2497 137.474L98.0211 137.668ZM101.666 137.82L101.455 137.606L101.453 137.608L101.666 137.82ZM22.0859 131.865L22.0859 131.565L22.0859 131.865ZM26.4902 134.834L26.2067 134.932L26.207 134.933L26.4902 134.834ZM26.8516 137.061L26.5516 137.061L26.8516 137.061ZM25.3379 141.699L25.1971 141.964L25.4302 142.088L25.5828 141.873L25.3379 141.699ZM22.5449 140.215L22.3219 140.014L22.0651 140.3L22.4041 140.48L22.5449 140.215ZM23.9512 137.158L24.2512 137.158L23.9512 137.158ZM23.6387 136.016L23.3863 136.178L23.3891 136.182L23.6387 136.016ZM22.6426 135.469L22.6426 135.169L22.6426 135.469ZM21.666 136.074L21.9173 136.238L21.9181 136.237L21.666 136.074ZM21.0703 137.588L21.358 137.673L21.3589 137.67L21.0703 137.588ZM20.543 139.209L20.2685 139.088L20.267 139.091L20.543 139.209ZM20.0156 140.107L20.247 140.298L20.2481 140.297L20.0156 140.107ZM17.3594 141.172L17.3594 140.872L17.3594 141.172ZM14.2832 140.068L14.4844 139.846L14.4836 139.845L14.2832 140.068ZM12.8477 136.631L12.5477 136.631L12.8477 136.631ZM13.9316 132.402L14.0689 132.136L13.804 131.999L13.6659 132.263L13.9316 132.402ZM16.627 133.789L16.864 133.973L17.0854 133.688L16.7642 133.522L16.627 133.789ZM15.7481 136.074L15.4481 136.074L15.7481 136.074ZM16.0313 137.07L15.7791 137.233L15.7794 137.233L16.0313 137.07ZM16.8906 137.568L16.8906 137.268L16.8906 137.568ZM17.7988 136.914L17.5416 136.76L17.5396 136.763L17.7988 136.914ZM18.4043 135.156L18.6922 135.241L18.6922 135.24L18.4043 135.156ZM19.9277 132.539L20.114 132.774L20.1155 132.773L19.9277 132.539ZM16.0703 119.177H16.3703V118.877H16.0703V119.177ZM16.0703 122.048H15.7703V122.348H16.0703V122.048ZM26.5 122.048H26.8V121.748H26.5V122.048ZM26.5 125.515V125.815H26.8V125.515H26.5ZM16.0703 125.515V125.215H15.7703V125.515H16.0703ZM16.0703 128.337V128.637H16.3703V128.337H16.0703ZM13.1699 128.337L12.8699 128.337L12.8699 128.637H13.1699V128.337ZM13.1699 119.177V118.877H12.8699L12.8699 119.177L13.1699 119.177ZM20.8555 103.413L20.8555 103.713H20.8555L20.8555 103.413ZM22.9063 103.609L22.839 103.901L22.8391 103.901L22.9063 103.609ZM25.3086 105.054L25.5266 104.848L25.5262 104.847L25.3086 105.054ZM26.8418 109.39L26.5418 109.39L26.8418 109.39ZM25.2793 113.706L25.0678 113.493L25.0672 113.494L25.2793 113.706ZM23.2188 114.829L23.1476 114.538L23.1475 114.538L23.2188 114.829ZM20.8555 115.044L20.8555 115.344H20.8555L20.8555 115.044ZM13.1699 115.044H12.8699V115.344H13.1699V115.044ZM13.1699 111.577V111.277H12.8699V111.577H13.1699ZM20.3867 111.577L20.3867 111.877H20.3867L20.3867 111.577ZM21.6855 111.548L21.706 111.847L21.7071 111.847L21.6855 111.548ZM23.5801 110.308L23.3095 110.178L23.3086 110.18L23.5801 110.308ZM22.916 107.359L22.7389 107.601L22.7399 107.601L22.916 107.359ZM20.3867 106.88L20.3867 107.18H20.3867L20.3867 106.88ZM13.1699 106.88L12.8699 106.88L12.8699 107.18H13.1699V106.88ZM13.1699 103.413V103.113H12.8699L12.8699 103.413L13.1699 103.413ZM19.8301 86.3211L19.8301 86.6211L19.8301 86.3211ZM23.6875 87.5808L23.514 87.8256L23.5143 87.8258L23.6875 87.5808ZM26.1387 90.784L26.4219 90.6851L26.4218 90.6849L26.1387 90.784ZM26.5 92.8933L26.8 92.8933V92.8933L26.5 92.8933ZM26.5 98.0105V98.3105H26.8V98.0105H26.5ZM13.1699 98.0105L12.8699 98.0105L12.8699 98.3105H13.1699V98.0105ZM13.1699 92.8933L12.8699 92.8933V92.8933L13.1699 92.8933ZM14.2148 89.4168L14.4661 89.5807L14.4668 89.5796L14.2148 89.4168ZM16.9297 87.0047L16.7985 86.7349L16.7968 86.7357L16.9297 87.0047ZM17.4277 90.6961L17.2474 90.4563L17.2469 90.4567L17.4277 90.6961ZM16.0703 93.7527L16.3703 93.7527V93.7527L16.0703 93.7527ZM16.0703 94.5437H15.7703V94.8437H16.0703V94.5437ZM23.5996 94.5437V94.8437H23.8996V94.5437H23.5996ZM23.5996 93.7527L23.8996 93.7527V93.7527L23.5996 93.7527ZM22.2422 90.6961L22.4219 90.4559L22.4215 90.4555L22.2422 90.6961ZM26.5 78.0375H26.8V77.7375H26.5V78.0375ZM26.5 81.5043V81.8043H26.8V81.5043H26.5ZM13.1699 81.5043H12.8699V81.8043H13.1699V81.5043ZM13.1699 78.0375V77.7375H12.8699V78.0375H13.1699ZM19.8789 58.4746L19.8789 58.1746L19.8789 58.4746ZM24.6445 60.2812L24.8431 60.0563L24.8428 60.0561L24.6445 60.2812ZM26.9785 65.8574L26.6785 65.8574L26.9785 65.8574ZM24.6445 71.4238L24.8428 71.6489L24.8431 71.6487L24.6445 71.4238ZM19.8789 73.2305L19.8789 72.9305L19.8789 73.2305ZM17.3398 72.7422L17.4454 72.4614L17.4447 72.4611L17.3398 72.7422ZM15.1035 71.4336L15.3022 71.2088L15.3021 71.2087L15.1035 71.4336ZM15.1035 60.2812L14.9052 60.0561L14.905 60.0563L15.1035 60.2812ZM19.8789 62.0781L19.8789 61.7781L19.8789 62.0781ZM17.4473 62.9766L17.2496 62.7509L17.249 62.7514L17.4473 62.9766ZM16.1387 65.8574L15.8387 65.8574L16.1387 65.8574ZM16.8125 68.0156L17.0598 67.8458L17.0586 67.8441L16.8125 68.0156ZM18.5898 69.3926L18.6938 69.1111L18.6936 69.1111L18.5898 69.3926ZM19.8789 69.6269L19.8789 69.3269L19.8789 69.6269ZM22.291 68.7285L22.4845 68.9578L22.4846 68.9577L22.291 68.7285ZM22.3008 62.9766L22.1052 63.204L22.1054 63.2042L22.3008 62.9766ZM101.3 7.5V7.2H101V7.5H101.3ZM103.204 9.84L103.091 9.56197L102.838 9.66448L102.917 9.92588L103.204 9.84ZM103.7 11.5V11.8H104.103L103.987 11.4141L103.7 11.5ZM102.9 11.5L102.613 11.5862L102.677 11.8H102.9V11.5ZM102.42 9.9L102.707 9.81379L102.643 9.6H102.42V9.9ZM102.1 9.9V9.6H101.8V9.9H102.1ZM102.1 11.5V11.8H102.4V11.5H102.1ZM101.3 11.5H101V11.8H101.3V11.5ZM102.1 8.3V8H101.8V8.3H102.1ZM102.1 9.1H101.8V9.4H102.1V9.1ZM102.9 9.1V9.4H103.2V9.1H102.9ZM102.9 8.3H103.2V8H102.9V8.3ZM102.5 5.5V5.2V5.5ZM102.5 6.3V6V6.3ZM102.5 12.7V13V12.7ZM60.6631 13.3788L60.529 13.1105L60.529 13.1105L60.6631 13.3788ZM79.661 147.381L79.9537 147.447L79.9537 147.447L79.661 147.381ZM89.9119 44.9953L90.1969 45.089L90.1971 45.0882L89.9119 44.9953ZM89.9126 44.9933L89.6274 44.8999L89.6273 44.9003L89.9126 44.9933ZM92.3091 1.72253L92.0463 1.57782L92.0463 1.57787L92.3091 1.72253ZM92.3115 1.7182L92.5743 1.86291L92.5743 1.86286L92.3115 1.7182ZM71.977 48.4472L71.7601 48.2399L71.7601 48.2399L71.977 48.4472ZM66.7662 66.0946L66.9785 66.3065L66.9785 66.3065L66.7662 66.0946ZM77.1025 55.2656L77.3894 55.3531L77.3894 55.3531L77.1025 55.2656ZM81.4412 9.07025L81.3008 9.33538L81.3008 9.33539L81.4412 9.07025ZM89.9132 44.9914L89.6282 44.8976L89.6281 44.8981L89.9132 44.9914ZM66.5175 103.877L66.2231 103.934L66.2231 103.934L66.5175 103.877ZM19.5 0.0766479C12.4308 0.0766479 6.7 5.8074 6.7 12.8766H7.3C7.3 6.13877 12.7621 0.676648 19.5 0.676648V0.0766479ZM99.5 0.0766479H19.5V0.676648H99.5V0.0766479ZM112.3 12.8766C112.3 5.8074 106.569 0.0766479 99.5 0.0766479V0.676648C106.238 0.676648 111.7 6.13877 111.7 12.8766H112.3ZM112.3 138.843V12.8766H111.7V138.843H112.3ZM99.4643 151.643C106.547 151.663 112.3 145.926 112.3 138.843H111.7C111.7 145.594 106.217 151.062 99.466 151.043L99.4643 151.643ZM19.4643 151.42L99.4643 151.643L99.466 151.043L19.4659 150.82L19.4643 151.42ZM6.7 138.62C6.7 145.675 12.409 151.4 19.4643 151.42L19.4659 150.82C12.7414 150.801 7.3 145.344 7.3 138.62H6.7ZM6.7 12.8766V138.62H7.3V12.8766H6.7ZM8.3 12.8766C8.3 6.69106 13.3144 1.67665 19.5 1.67665V1.07665C12.983 1.07665 7.7 6.35969 7.7 12.8766H8.3ZM8.3 138.62V12.8766H7.7V138.62H8.3ZM19.4687 149.82C13.2954 149.803 8.3 144.793 8.3 138.62H7.7C7.7 145.124 12.963 150.402 19.4671 150.42L19.4687 149.82ZM99.4687 150.043L19.4687 149.82L19.4671 150.42L99.4671 150.643L99.4687 150.043ZM110.7 138.843C110.7 145.041 105.667 150.06 99.4687 150.043L99.4671 150.643C105.997 150.661 111.3 145.373 111.3 138.843H110.7ZM110.7 12.8766V138.843H111.3V12.8766H110.7ZM99.5 1.67665C105.686 1.67665 110.7 6.69106 110.7 12.8766H111.3C111.3 6.35969 106.017 1.07665 99.5 1.07665V1.67665ZM34.8545 150.162V131.62H34.2545V150.162H34.8545ZM34.8412 131.709L36.8412 125.209L36.2678 125.032L34.2678 131.532L34.8412 131.709ZM36.8455 125.193L38.3455 119.193L37.7635 119.048L36.2635 125.048L36.8455 125.193ZM38.3545 119.12V114.62H37.7545V119.12H38.3545ZM38.3358 114.516C34.3369 103.719 32.6772 97.704 32.3487 96.0616L31.7603 96.1792C32.0985 97.8701 33.7721 103.922 37.7732 114.725L38.3358 114.516ZM32.3532 96.0928C31.8533 90.6773 31.1285 82.3541 30.5787 74.9856C30.3037 71.3011 30.0727 67.857 29.9354 65.135C29.7973 62.3989 29.7562 60.4255 29.8522 59.6576L29.2568 59.5832C29.1528 60.4154 29.1992 62.4503 29.3361 65.1652C29.4738 67.8943 29.7053 71.3439 29.9803 75.0302C30.5305 82.4034 31.2557 90.7302 31.7558 96.148L32.3532 96.0928ZM29.8483 59.6809C32.6484 46.0806 34.3973 38.0862 35.5706 33.3678C36.1575 31.0077 36.5985 29.4752 36.9529 28.4736C37.3112 27.461 37.5683 27.0309 37.7666 26.8325L37.3424 26.4083C37.0407 26.7099 36.7478 27.2548 36.3873 28.2735C36.023 29.3031 35.5765 30.8581 34.9884 33.223C33.8117 37.9547 32.0606 45.9602 29.2607 59.5599L29.8483 59.6809ZM66.3522 10.6576C66.5168 9.34081 67.2891 5.07392 69.2622 1.52234L68.7378 1.23096C66.7109 4.87937 65.9255 9.23337 65.7568 10.5832L66.3522 10.6576ZM88.0545 6.82042C87.8925 6.82042 87.791 6.92287 87.7444 6.98396C87.6948 7.04899 87.6609 7.12566 87.6361 7.19407C87.5853 7.33427 87.5451 7.52056 87.5115 7.72883C87.4434 8.15033 87.3927 8.72493 87.355 9.35245C87.2795 10.6106 87.2545 12.1171 87.2545 13.1204H87.8545C87.8545 12.1237 87.8794 10.6302 87.954 9.38839C87.9913 8.76592 88.0406 8.21552 88.1038 7.82451C88.1358 7.62654 88.169 7.4847 88.2002 7.39834C88.2165 7.35346 88.2257 7.34225 88.2215 7.3477C88.2204 7.34923 88.1665 7.42042 88.0545 7.42042V6.82042ZM87.2699 13.2153C88.2572 16.1771 90.355 26.045 90.7546 41.6281L91.3544 41.6127C90.954 25.9959 88.8518 16.0637 87.8391 13.0256L87.2699 13.2153ZM75.7915 74.9762C68.989 87.3807 66.6007 94.5181 66.2586 96.5711L66.8504 96.6697C67.1749 94.7227 69.52 87.6602 76.3175 75.2647L75.7915 74.9762ZM66.5545 96.6204C66.2563 96.5873 66.2563 96.5873 66.2563 96.5874C66.2563 96.5874 66.2563 96.5875 66.2563 96.5876C66.2563 96.5878 66.2563 96.588 66.2562 96.5883C66.2562 96.5889 66.2561 96.5897 66.2559 96.5908C66.2557 96.593 66.2554 96.5962 66.2549 96.6004C66.254 96.6088 66.2527 96.6212 66.251 96.6374C66.2475 96.6698 66.2426 96.7175 66.2365 96.7791C66.2244 96.9023 66.2075 97.0812 66.1886 97.3051C66.1509 97.7527 66.1051 98.3807 66.0729 99.103C66.0086 100.543 65.9973 102.375 66.2167 103.9L66.8106 103.814C66.5993 102.346 66.6085 100.56 66.6723 99.1297C66.7041 98.417 66.7493 97.797 66.7865 97.3555C66.8051 97.1347 66.8217 96.9587 66.8336 96.8381C66.8396 96.7778 66.8444 96.7314 66.8477 96.7002C66.8493 96.6846 66.8506 96.6728 66.8514 96.665C66.8518 96.6611 66.8522 96.6581 66.8524 96.6562C66.8525 96.6553 66.8526 96.6546 66.8526 96.6541C66.8526 96.6539 66.8526 96.6537 66.8527 96.6536C66.8527 96.6536 66.8527 96.6536 66.8527 96.6535C66.8527 96.6535 66.8527 96.6536 66.5545 96.6204ZM79.0008 149.986L34.5553 149.862L34.5537 150.462L78.9992 150.586L79.0008 149.986ZM79.7559 4.94605C78.9345 6.09596 76.1795 9.51669 71.7879 13.9083L72.2121 14.3326C76.6205 9.92415 79.3988 6.47822 80.2441 5.29479L79.7559 4.94605ZM71.8858 13.843C69.0351 15.0168 61.7449 18.5617 55.32 23.3804L55.68 23.8604C62.0551 19.0791 69.2982 15.5574 72.1142 14.3978L71.8858 13.843ZM55.32 23.3804C48.9295 28.1733 44.6892 30.3541 43.3947 30.8395L43.6053 31.4013C44.9774 30.8868 49.2705 28.6675 55.68 23.8604L55.32 23.3804ZM43.2006 31.1017L42.7006 39.1017L43.2994 39.1391L43.7994 31.1391L43.2006 31.1017ZM42.7879 39.3326L43.7879 40.3326L44.2121 39.9083L43.2121 38.9083L42.7879 39.3326ZM44 40.4204C46.4779 40.4204 48.1547 39.39 48.7121 38.8326L48.2879 38.4083C47.8453 38.8509 46.3221 39.8204 44 39.8204V40.4204ZM48.797 38.578C48.7291 38.1025 48.9087 37.1586 49.8215 36.0206C50.7291 34.8891 52.3511 33.582 55.1182 32.3962L54.8818 31.8447C52.0489 33.0588 50.3375 34.4184 49.3535 35.6452C48.3746 36.8655 48.1043 37.9717 48.203 38.6628L48.797 38.578ZM55 32.4204H63.5V31.8204H55V32.4204ZM63.4051 32.405C65.8439 33.218 71.1418 36.4247 72.709 42.6932L73.291 42.5477C71.6582 36.0161 66.1561 32.6896 63.5949 31.8358L63.4051 32.405ZM72.2317 54.7546C72.2472 54.7856 72.253 54.8205 72.2457 54.8544C72.2392 54.8848 72.2168 54.9405 72.1296 55.0076C71.9401 55.1534 71.4831 55.3204 70.5 55.3204V55.9204C71.5169 55.9204 72.1432 55.7541 72.4954 55.4832C72.679 55.342 72.792 55.1686 72.8324 54.9802C72.872 54.7953 72.8362 54.6219 72.7683 54.4863L72.2317 54.7546ZM70.2 55.6204V57.6204H70.8V55.6204H70.2ZM70.4051 57.3358L68.9051 57.8358L69.0949 58.405L70.5949 57.905L70.4051 57.3358ZM68.7 58.1204V59.6204H69.3V58.1204H68.7ZM68.7879 59.4083L67.7879 60.4083L68.2121 60.8326L69.2121 59.8326L68.7879 59.4083ZM67.7 60.6204V62.6204H68.3V60.6204H67.7ZM67.7879 62.4083C67.3837 62.8124 66.0345 63.4913 64.1543 62.3632L63.8457 62.8777C65.9655 64.1496 67.6163 63.4284 68.2121 62.8326L67.7879 62.4083ZM64.1543 62.3632C62.1101 61.1366 60.2238 60.8204 59.5 60.8204V61.4204C60.1095 61.4204 61.8899 61.7042 63.8457 62.8777L64.1543 62.3632ZM59.4051 60.8358C59.0405 60.9574 58.6167 61.3712 58.2883 62.1112C57.9543 62.8638 57.7 63.9912 57.7 65.6204H58.3C58.3 64.0496 58.5457 63.0103 58.8367 62.3546C59.1333 61.6863 59.4595 61.4502 59.5949 61.405L59.4051 60.8358ZM57.7879 65.8326C58.3192 66.3639 60.1503 67.781 63.3658 69.3888L63.6342 68.8521C60.4497 67.2598 58.6808 65.8769 58.2121 65.4083L57.7879 65.8326ZM84.7994 41.1017C84.2997 33.107 83.1992 16.1966 82.7982 12.5873L82.2018 12.6536C82.6008 16.2442 83.7003 33.1338 84.2006 41.1391L84.7994 41.1017ZM81.2683 8.48626C81.105 8.15955 81.0584 7.6429 81.0871 7.08584C81.1151 6.54115 81.2117 6.01047 81.291 5.69318L80.709 5.54766C80.6216 5.89705 80.5182 6.46636 80.4879 7.055C80.4582 7.63128 80.495 8.2813 80.7317 8.75459L81.2683 8.48626ZM81.1342 5.35209L80.1342 4.85209L79.8658 5.38875L80.8658 5.88875L81.1342 5.35209ZM40.7041 51.1697C40.8703 52.1673 41.1198 53.7641 41.3277 55.3104C41.5365 56.8641 41.7 58.344 41.7 59.1204H42.3C42.3 58.2969 42.1302 56.7767 41.9223 55.2305C41.7135 53.6767 41.463 52.0735 41.2959 51.0711L40.7041 51.1697ZM41.7 59.1204C41.7 60.008 42.0705 60.7397 42.518 61.2856C42.9634 61.829 43.4977 62.2047 43.8658 62.3888L44.1342 61.8521C43.8356 61.7028 43.3699 61.3785 42.982 60.9052C42.5962 60.4345 42.3 59.8328 42.3 59.1204H41.7ZM44.2496 62.2868L48.2496 56.2868L47.7504 55.954L43.7504 61.954L44.2496 62.2868ZM48.1218 55.8463C47.7804 55.6945 47.3036 55.3794 46.7665 54.9746C46.2348 54.5739 45.6621 54.0994 45.1335 53.6433C44.6052 53.1875 44.1233 52.7522 43.7733 52.4307C43.5983 52.27 43.4565 52.1379 43.3585 52.0461C43.3095 52.0001 43.2715 51.9643 43.2458 51.94C43.2329 51.9278 43.2231 51.9186 43.2166 51.9124C43.2133 51.9093 43.2109 51.907 43.2092 51.9054C43.2084 51.9046 43.2078 51.9041 43.2074 51.9037C43.2072 51.9035 43.2071 51.9034 43.207 51.9033C43.207 51.9032 43.2069 51.9032 43.2069 51.9032C43.2069 51.9032 43.2069 51.9032 43 52.1204C42.7931 52.3377 42.7931 52.3377 42.7932 52.3377C42.7932 52.3378 42.7933 52.3378 42.7933 52.3379C42.7934 52.338 42.7936 52.3381 42.7938 52.3384C42.7943 52.3388 42.795 52.3394 42.7958 52.3403C42.7976 52.3419 42.8002 52.3444 42.8036 52.3476C42.8104 52.3541 42.8205 52.3636 42.8336 52.376C42.8599 52.4009 42.8985 52.4373 42.9482 52.4838C43.0474 52.5769 43.1908 52.7104 43.3674 52.8726C43.7205 53.1969 44.2073 53.6366 44.7415 54.0976C45.2754 54.5581 45.859 55.042 46.4054 55.4538C46.9464 55.8614 47.4696 56.213 47.8782 56.3946L48.1218 55.8463ZM43 52.1204C43.2458 51.9484 43.2457 51.9484 43.2457 51.9483C43.2457 51.9483 43.2457 51.9483 43.2457 51.9482C43.2456 51.9481 43.2455 51.948 43.2454 51.9479C43.2453 51.9476 43.245 51.9473 43.2447 51.9468C43.244 51.9459 43.2431 51.9446 43.2419 51.9429C43.2395 51.9395 43.236 51.9346 43.2315 51.9282C43.2225 51.9155 43.2095 51.8972 43.1927 51.8739C43.1593 51.8275 43.1115 51.7617 43.053 51.6833C42.9364 51.5269 42.7763 51.3187 42.6045 51.1147C42.4348 50.9131 42.2449 50.7052 42.0693 50.5559C41.9828 50.4824 41.886 50.4111 41.7865 50.3649C41.6979 50.3238 41.5331 50.2685 41.3658 50.3521L41.6342 50.8888C41.5503 50.9307 41.4948 50.891 41.5338 50.9091C41.5619 50.9222 41.6109 50.9538 41.6807 51.0131C41.8176 51.1294 41.9819 51.3069 42.1455 51.5012C42.3071 51.693 42.4595 51.891 42.572 52.042C42.6281 52.1172 42.674 52.1803 42.7057 52.2243C42.7215 52.2464 42.7338 52.2636 42.7421 52.2753C42.7462 52.2811 42.7493 52.2855 42.7514 52.2884C42.7524 52.2899 42.7532 52.2909 42.7536 52.2916C42.7539 52.2919 42.754 52.2922 42.7541 52.2923C42.7542 52.2924 42.7542 52.2925 42.7542 52.2925C42.7542 52.2925 42.7542 52.2925 42.7542 52.2925C42.7542 52.2925 42.7542 52.2925 43 52.1204ZM41.2879 50.4083L40.7879 50.9083L41.2121 51.3326L41.7121 50.8326L41.2879 50.4083ZM44.6797 133.866H41.9727V134.466H44.6797V133.866ZM41.6727 134.166V141.877H42.2727V134.166H41.6727ZM41.9727 141.577H38.1289V142.177H41.9727V141.577ZM38.4289 141.877V134.166H37.8289V141.877H38.4289ZM38.1289 133.866H36.7578V134.466H38.1289V133.866ZM37.0578 134.166V131.002H36.4578V134.166H37.0578ZM36.7578 131.302H38.1289V130.702H36.7578V131.302ZM38.4289 131.002V129.56H37.8289V131.002H38.4289ZM38.4289 129.56C38.4289 128.008 38.8221 126.857 39.5666 126.062L39.1287 125.652C38.2482 126.592 37.8289 127.909 37.8289 129.56H38.4289ZM39.5668 126.062C40.5207 125.042 41.6535 124.54 42.9805 124.54V123.94C41.4793 123.94 40.1902 124.516 39.1285 125.652L39.5668 126.062ZM42.9805 124.54C43.4943 124.54 44.0177 124.661 44.553 124.91L44.8063 124.366C44.2011 124.085 43.5917 123.94 42.9805 123.94V124.54ZM44.3797 124.638V127.99H44.9797V124.638H44.3797ZM44.8247 127.727C44.2806 127.427 43.7793 127.256 43.332 127.256V127.856C43.6347 127.856 44.0319 127.975 44.5347 128.253L44.8247 127.727ZM43.332 127.256C42.7192 127.256 42.2314 127.498 41.9272 127.998L42.44 128.31C42.6202 128.013 42.898 127.856 43.332 127.856V127.256ZM41.9287 127.996C41.8218 128.168 41.7636 128.42 41.7277 128.705C41.6904 129.002 41.6727 129.378 41.6727 129.83H42.2727C42.2727 129.391 42.2901 129.042 42.323 128.78C42.3575 128.507 42.4048 128.367 42.4385 128.312L41.9287 127.996ZM41.6727 129.83V131.002H42.2727V129.83H41.6727ZM41.9727 131.302H44.6797V130.702H41.9727V131.302ZM44.3797 131.002V134.166H44.9797V131.002H44.3797ZM50.3675 126.818C50.3675 127.35 50.1868 127.789 49.8226 128.153L50.2468 128.577C50.7263 128.098 50.9675 127.505 50.9675 126.818H50.3675ZM49.8226 128.153C49.4673 128.508 49.0329 128.686 48.4995 128.686V129.286C49.1849 129.286 49.774 129.05 50.2468 128.577L49.8226 128.153ZM48.4995 128.686C47.9768 128.686 47.5416 128.506 47.1765 128.141L46.7522 128.565C47.2309 129.044 47.8191 129.286 48.4995 129.286V128.686ZM47.1785 128.143C46.8205 127.778 46.6433 127.343 46.6433 126.818H46.0433C46.0433 127.497 46.2801 128.084 46.7503 128.563L47.1785 128.143ZM46.6433 126.818C46.6433 126.294 46.8204 125.863 47.1765 125.507L46.7522 125.082C46.2802 125.555 46.0433 126.139 46.0433 126.818H46.6433ZM47.1765 125.507C47.5416 125.142 47.9768 124.962 48.4995 124.962V124.362C47.8191 124.362 47.2309 124.604 46.7522 125.082L47.1765 125.507ZM48.4995 124.962C49.0223 124.962 49.4575 125.142 49.8226 125.507L50.2468 125.082C49.7682 124.604 49.1799 124.362 48.4995 124.362V124.962ZM49.8245 125.509C50.1878 125.865 50.3675 126.295 50.3675 126.818H50.9675C50.9675 126.138 50.7253 125.552 50.2448 125.081L49.8245 125.509ZM50.4214 141.577H46.5777V142.177H50.4214V141.577ZM46.8777 141.877V131.002H46.2777V141.877H46.8777ZM46.5777 131.302H50.4214V130.702H46.5777V131.302ZM50.1214 131.002V141.877H50.7214V131.002H50.1214ZM65.4139 141.127C65.4139 142.069 65.348 142.814 65.2221 143.369L65.8073 143.502C65.947 142.885 66.0139 142.091 66.0139 141.127H65.4139ZM65.222 143.369C65.0282 144.231 64.524 145.016 63.681 145.725L64.0671 146.184C64.9898 145.409 65.5793 144.515 65.8074 143.501L65.222 143.369ZM63.6812 145.725C62.6313 146.606 61.2214 147.061 59.4209 147.061V147.661C61.3236 147.661 62.8824 147.179 64.0669 146.185L63.6812 145.725ZM59.4209 147.061C57.5373 147.061 56.0719 146.565 54.9916 145.602L54.5924 146.05C55.809 147.134 57.4296 147.661 59.4209 147.661V147.061ZM54.9912 145.602C54.2547 144.948 53.8067 144.283 53.6158 143.611L53.0386 143.775C53.2695 144.588 53.7981 145.345 54.5929 146.05L54.9912 145.602ZM53.6145 143.607C53.598 143.552 53.5695 143.408 53.5298 143.155L52.937 143.247C52.9755 143.493 53.0095 143.678 53.0398 143.779L53.6145 143.607ZM53.2334 143.501H57.5577V142.901H53.2334V143.501ZM57.2743 143.299C57.4106 143.691 57.6063 144.01 57.883 144.215L58.2401 143.733C58.0949 143.626 57.9547 143.429 57.841 143.102L57.2743 143.299ZM57.8816 144.214C58.2885 144.519 58.7935 144.661 59.3741 144.661V144.061C58.8921 144.061 58.5221 143.945 58.2416 143.734L57.8816 144.214ZM59.3741 144.661C60.3455 144.661 61.1236 144.31 61.6645 143.592L61.1852 143.231C60.7729 143.779 60.1839 144.061 59.3741 144.061V144.661ZM61.6654 143.591C62.0157 143.121 62.1702 142.477 62.1702 141.701H61.5702C61.5702 142.409 61.4277 142.906 61.1843 143.233L61.6654 143.591ZM62.1702 141.701V140.67H61.5702V141.701H62.1702ZM61.6676 140.448C61.2132 140.864 60.847 141.142 60.5654 141.297L60.8546 141.823C61.1979 141.634 61.6052 141.319 62.0727 140.891L61.6676 140.448ZM60.5646 141.298C59.9684 141.628 59.2548 141.799 58.4131 141.799V142.399C59.3371 142.399 60.1547 142.211 60.8554 141.823L60.5646 141.298ZM58.4131 141.799C57.3581 141.799 56.4236 141.529 55.6004 140.993L55.2727 141.495C56.1996 142.099 57.2494 142.399 58.4131 142.399V141.799ZM55.6004 140.993C54.7557 140.442 54.1513 139.691 53.783 138.734L53.223 138.949C53.6359 140.023 54.3206 140.874 55.2727 141.495L55.6004 140.993ZM53.7828 138.733C53.5317 138.083 53.4045 137.374 53.4045 136.603H52.8045C52.8045 137.441 52.943 138.225 53.2231 138.95L53.7828 138.733ZM53.4045 136.603C53.4045 134.892 53.9458 133.523 55.0144 132.469L54.5931 132.042C53.396 133.222 52.8045 134.752 52.8045 136.603H53.4045ZM55.0143 132.469C56.0127 131.486 57.2065 130.997 58.6123 130.997V130.397C57.0494 130.397 55.7042 130.947 54.5932 132.042L55.0143 132.469ZM58.6123 130.997C59.3598 130.997 60.0145 131.148 60.5835 131.444L60.8599 130.911C60.1946 130.566 59.443 130.397 58.6123 130.397V130.997ZM60.5808 131.442C60.9065 131.615 61.2623 131.909 61.6466 132.338L62.0937 131.938C61.6812 131.477 61.2714 131.13 60.8626 130.913L60.5808 131.442ZM62.1702 132.138V131.002H61.5702V132.138H62.1702ZM61.8702 131.302H65.7139V130.702H61.8702V131.302ZM65.4139 131.002V141.127H66.0139V131.002H65.4139ZM62.3577 136.404C62.3577 135.632 62.0901 134.96 61.56 134.404L61.1257 134.818C61.5486 135.262 61.7577 135.785 61.7577 136.404H62.3577ZM61.56 134.404C61.0264 133.844 60.3618 133.561 59.585 133.561V134.161C60.1989 134.161 60.7061 134.378 61.1257 134.818L61.56 134.404ZM59.585 133.561C58.7226 133.561 58.005 133.897 57.4556 134.56L57.9175 134.943C58.3525 134.418 58.9006 134.161 59.585 134.161V133.561ZM57.4545 134.561C57.0193 135.092 56.8006 135.711 56.8006 136.404H57.4006C57.4006 135.847 57.5726 135.364 57.9186 134.942L57.4545 134.561ZM56.8006 136.404C56.8006 137.176 57.0682 137.848 57.5983 138.404L58.0326 137.99C57.6096 137.546 57.4006 137.023 57.4006 136.404H56.8006ZM57.6016 138.407C58.1428 138.957 58.8099 139.235 59.585 139.235V138.635C58.9695 138.635 58.4568 138.421 58.0293 137.987L57.6016 138.407ZM59.585 139.235C60.3534 139.235 61.0133 138.956 61.5466 138.406L61.1156 137.988C60.6957 138.422 60.1916 138.635 59.585 138.635V139.235ZM61.5466 138.406C62.0851 137.85 62.3577 137.177 62.3577 136.404H61.7577C61.7577 137.021 61.5459 137.544 61.1156 137.988L61.5466 138.406ZM80.1205 137.904C80.1205 138.868 79.8931 139.645 79.4583 140.255C79.0235 140.866 78.3628 141.335 77.451 141.652L77.6477 142.219C78.65 141.871 79.4249 141.337 79.9471 140.603C80.4693 139.87 80.7205 138.964 80.7205 137.904H80.1205ZM77.452 141.651C76.6955 141.911 75.7579 142.045 74.6314 142.045V142.645C75.8018 142.645 76.8095 142.506 77.6467 142.219L77.452 141.651ZM74.6314 142.045C72.4145 142.045 70.8958 141.5 69.9925 140.482L69.5437 140.88C70.6092 142.081 72.3327 142.645 74.6314 142.645V142.045ZM69.9924 140.482C69.4264 139.845 69.1306 138.996 69.1306 137.904H68.5306C68.5306 139.109 68.8599 140.111 69.5439 140.881L69.9924 140.482ZM69.1306 137.904V131.002H68.5306V137.904H69.1306ZM68.8306 131.302H72.6744V130.702H68.8306V131.302ZM72.3744 131.002V137.166H72.9744V131.002H72.3744ZM72.3744 137.166C72.3744 137.887 72.5482 138.481 72.957 138.88L73.3761 138.451C73.1287 138.21 72.9744 137.803 72.9744 137.166H72.3744ZM72.9568 138.88C73.3786 139.293 73.9503 139.481 74.6314 139.481V138.881C74.0626 138.881 73.6577 138.726 73.3763 138.451L72.9568 138.88ZM74.6314 139.481C75.306 139.481 75.8732 139.292 76.2943 138.88L75.8748 138.451C75.5927 138.727 75.1912 138.881 74.6314 138.881V139.481ZM76.2941 138.88C76.7029 138.481 76.8767 137.887 76.8767 137.166H76.2767C76.2767 137.803 76.1224 138.21 75.875 138.451L76.2941 138.88ZM76.8767 137.166V131.002H76.2767V137.166H76.8767ZM91.7994 133.905C91.2231 133.63 90.6323 133.489 90.0294 133.489V134.089C90.5359 134.089 91.0387 134.206 91.5406 134.446L91.7994 133.905ZM90.0294 133.489C89.357 133.489 88.7758 133.626 88.3053 133.922C87.8313 134.22 87.4936 134.664 87.2865 135.233L87.8504 135.438C88.0183 134.977 88.2783 134.647 88.6246 134.43C88.9743 134.21 89.4361 134.089 90.0294 134.089V133.489ZM87.2875 135.231C87.1291 135.653 87.0575 136.197 87.0575 136.848H87.6575C87.6575 136.232 87.7265 135.769 87.8493 135.441L87.2875 135.231ZM87.0575 136.848V141.5H87.6575V136.848H87.0575ZM87.3575 141.2H83.5137V141.8H87.3575V141.2ZM83.8137 141.5V130.625H83.2137V141.5H83.8137ZM83.5137 130.925H87.3575V130.325H83.5137V130.925ZM87.0575 130.625V132.406H87.6575V130.625H87.0575ZM87.61 132.568C88.0001 131.961 88.4072 131.543 88.8243 131.292L88.5156 130.778C87.9953 131.09 87.5274 131.586 87.105 132.244L87.61 132.568ZM88.8229 131.293C89.4018 130.95 90.0969 130.773 90.92 130.773V130.173C90.0087 130.173 89.2039 130.37 88.5171 130.777L88.8229 131.293ZM90.92 130.773C91.1125 130.773 91.3541 130.784 91.6464 130.807L91.6936 130.209C91.3921 130.185 91.1337 130.173 90.92 130.173V130.773ZM91.37 130.508V134.176H91.97V130.508H91.37ZM106.119 141.2H102.275V141.8H106.119V141.2ZM102.575 141.5V140.293H101.975V141.5H102.575ZM102.04 140.106C101.689 140.547 101.346 140.853 101.015 141.039L101.309 141.562C101.727 141.327 102.127 140.961 102.51 140.48L102.04 140.106ZM101.015 141.039C100.409 141.378 99.7139 141.552 98.9234 141.552V142.152C99.8048 142.152 100.602 141.958 101.308 141.563L101.015 141.039ZM98.9234 141.552C97.6481 141.552 96.5147 141.115 95.5124 140.232L95.1157 140.682C96.2228 141.658 97.4957 142.152 98.9234 142.152V141.552ZM95.5125 140.232C94.3255 139.185 93.7273 137.802 93.7273 136.051H93.1273C93.1273 137.956 93.787 139.51 95.1156 140.682L95.5125 140.232ZM93.7273 136.051C93.7273 134.27 94.3405 132.872 95.5566 131.825L95.1652 131.37C93.8033 132.542 93.1273 134.113 93.1273 136.051H93.7273ZM95.5569 131.825C96.5269 130.988 97.6335 130.573 98.8883 130.573V129.973C97.4868 129.973 96.2418 130.442 95.165 131.37L95.5569 131.825ZM98.8883 130.573C99.6177 130.573 100.3 130.728 100.938 131.036L101.198 130.495C100.477 130.147 99.7057 129.973 98.8883 129.973V130.573ZM100.938 131.036C101.287 131.203 101.661 131.487 102.059 131.9L102.491 131.483C102.061 131.037 101.63 130.703 101.198 130.495L100.938 131.036ZM102.575 131.691V130.625H101.975V131.691H102.575ZM102.275 130.925H106.119V130.325H102.275V130.925ZM105.819 130.625V141.5H106.419V130.625H105.819ZM102.692 136.062C102.692 135.296 102.418 134.636 101.876 134.103L101.455 134.53C101.882 134.95 102.092 135.454 102.092 136.062H102.692ZM101.878 134.104C101.337 133.563 100.675 133.29 99.9078 133.29V133.89C100.516 133.89 101.026 134.101 101.453 134.529L101.878 134.104ZM99.9078 133.29C99.0551 133.29 98.3424 133.617 97.7927 134.263L98.2495 134.652C98.6842 134.141 99.2293 133.89 99.9078 133.89V133.29ZM97.7925 134.263C97.3491 134.784 97.1234 135.388 97.1234 136.062H97.7234C97.7234 135.534 97.8962 135.067 98.2497 134.651L97.7925 134.263ZM97.1234 136.062C97.1234 136.737 97.3491 137.341 97.7925 137.862L98.2497 137.474C97.8962 137.058 97.7234 136.591 97.7234 136.062H97.1234ZM97.7911 137.861C98.3342 138.509 99.0482 138.835 99.9078 138.835V138.235C99.2205 138.235 98.6768 137.983 98.2511 137.475L97.7911 137.861ZM99.9078 138.835C100.68 138.835 101.343 138.567 101.878 138.032L101.453 137.608C101.035 138.027 100.526 138.235 99.9078 138.235V138.835ZM101.876 138.034C102.419 137.5 102.692 136.836 102.692 136.062H102.092C102.092 136.68 101.881 137.188 101.455 137.606L101.876 138.034ZM22.0859 132.165C23.1687 132.165 24.0362 132.403 24.7088 132.856C25.3795 133.308 25.8821 133.992 26.2067 134.932L26.7738 134.736C26.4148 133.697 25.8415 132.896 25.0441 132.359C24.2486 131.822 23.2558 131.565 22.0859 131.565L22.0859 132.165ZM26.207 134.933C26.4359 135.589 26.5516 136.297 26.5516 137.061L27.1516 137.061C27.1516 136.236 27.0264 135.46 26.7735 134.735L26.207 134.933ZM26.5516 137.061C26.5516 138.662 26.0681 140.148 25.093 141.526L25.5828 141.873C26.6259 140.399 27.1516 138.792 27.1516 137.061L26.5516 137.061ZM25.4787 141.434L22.6857 139.95L22.4041 140.48L25.1971 141.964L25.4787 141.434ZM22.7679 140.416C23.7349 139.341 24.2512 138.254 24.2512 137.158L23.6512 137.158C23.6512 138.055 23.23 139.005 22.3219 140.014L22.7679 140.416ZM24.2512 137.158C24.2512 136.662 24.1355 136.22 23.8883 135.849L23.3891 136.182C23.5586 136.436 23.6512 136.756 23.6512 137.158L24.2512 137.158ZM23.891 135.853C23.602 135.404 23.1754 135.169 22.6426 135.169L22.6426 135.769C22.9691 135.769 23.2066 135.898 23.3863 136.178L23.891 135.853ZM22.6426 135.169C22.1258 135.169 21.715 135.445 21.4139 135.912L21.9181 136.237C22.1378 135.896 22.3781 135.769 22.6426 135.769L22.6426 135.169ZM21.4147 135.91C21.1934 136.25 20.985 136.791 20.7818 137.506L21.3589 137.67C21.5593 136.965 21.7481 136.498 21.9173 136.238L21.4147 135.91ZM20.7826 137.503C20.5269 138.368 20.3567 138.888 20.2685 139.088L20.8174 139.33C20.9245 139.087 21.1059 138.526 21.358 137.673L20.7826 137.503ZM20.267 139.091C20.1262 139.422 19.9641 139.696 19.7832 139.918L20.2481 140.297C20.4708 140.024 20.6603 139.699 20.819 139.327L20.267 139.091ZM19.7843 139.916C19.2709 140.538 18.4825 140.872 17.3594 140.872L17.3594 141.472C18.606 141.472 19.5884 141.096 20.247 140.298L19.7843 139.916ZM17.3594 140.872C16.1866 140.872 15.2359 140.525 14.4844 139.846L14.082 140.291C14.9581 141.083 16.0582 141.472 17.3594 141.472L17.3594 140.872ZM14.4836 139.845C13.5976 139.049 13.1477 137.989 13.1477 136.631L12.5477 136.631C12.5477 138.138 13.0548 139.368 14.0828 140.292L14.4836 139.845ZM13.1477 136.631C13.1477 135.244 13.4953 133.882 14.1974 132.541L13.6659 132.263C12.9226 133.683 12.5477 135.14 12.5477 136.631L13.1477 136.631ZM13.7944 132.669L16.4897 134.056L16.7642 133.522L14.0689 132.136L13.7944 132.669ZM16.3899 133.605C15.7734 134.4 15.4481 135.225 15.4481 136.074L16.0481 136.074C16.0481 135.387 16.3087 134.689 16.864 133.973L16.3899 133.605ZM15.4481 136.074C15.4481 136.499 15.557 136.888 15.7791 137.233L16.2834 136.908C16.1279 136.666 16.0481 136.392 16.0481 136.074L15.4481 136.074ZM15.7794 137.233C16.0427 137.64 16.4188 137.868 16.8906 137.868L16.8906 137.268C16.6463 137.268 16.4495 137.165 16.2831 136.907L15.7794 137.233ZM16.8906 137.868C17.392 137.868 17.7763 137.549 18.0581 137.065L17.5396 136.763C17.3135 137.151 17.0924 137.268 16.8906 137.268L16.8906 137.868ZM18.0561 137.068C18.1331 136.94 18.2218 136.716 18.3217 136.426C18.4248 136.127 18.5483 135.731 18.6922 135.241L18.1164 135.072C17.9738 135.558 17.8532 135.944 17.7544 136.23C17.6525 136.526 17.5817 136.693 17.5416 136.76L18.0561 137.068ZM18.6922 135.24C19.0414 134.047 19.5245 133.241 20.114 132.774L19.7415 132.304C19.0159 132.879 18.4834 133.818 18.1164 135.072L18.6922 135.24ZM20.1155 132.773C20.611 132.375 21.2595 132.165 22.0859 132.165L22.0859 131.565C21.1546 131.565 20.3643 131.804 19.74 132.305L20.1155 132.773ZM15.7703 119.177V122.048H16.3703V119.177H15.7703ZM16.0703 122.348H26.5V121.748H16.0703V122.348ZM26.2 122.048V125.515H26.8V122.048H26.2ZM26.5 125.215H16.0703V125.815H26.5V125.215ZM15.7703 125.515V128.337H16.3703V125.515H15.7703ZM16.0703 128.037H13.1699V128.637H16.0703V128.037ZM13.4699 128.337L13.4699 119.177L12.8699 119.177L12.8699 128.337L13.4699 128.337ZM13.1699 119.477H16.0703V118.877H13.1699V119.477ZM20.8555 103.713C21.6415 103.713 22.3012 103.777 22.839 103.901L22.9735 103.316C22.3785 103.179 21.671 103.113 20.8555 103.113L20.8555 103.713ZM22.8391 103.901C23.6515 104.088 24.4021 104.534 25.091 105.26L25.5262 104.847C24.7698 104.05 23.9188 103.533 22.9734 103.316L22.8391 103.901ZM25.0906 105.26C26.0491 106.273 26.5418 107.639 26.5418 109.39L27.1418 109.39C27.1418 107.521 26.6123 105.996 25.5266 104.848L25.0906 105.26ZM26.5418 109.39C26.5418 111.174 26.0392 112.528 25.0678 113.493L25.4908 113.919C26.6027 112.814 27.1418 111.291 27.1418 109.39L26.5418 109.39ZM25.0672 113.494C24.563 113.998 23.9266 114.348 23.1476 114.538L23.2899 115.121C24.1646 114.907 24.9019 114.508 25.4914 113.918L25.0672 113.494ZM23.1475 114.538C22.5949 114.673 21.8342 114.744 20.8555 114.744L20.8555 115.344C21.8559 115.344 22.6707 115.272 23.29 115.121L23.1475 114.538ZM20.8555 114.744H13.1699V115.344H20.8555V114.744ZM13.4699 115.044V111.577H12.8699V115.044H13.4699ZM13.1699 111.877H20.3867V111.277H13.1699V111.877ZM20.3867 111.877C20.9676 111.877 21.4089 111.868 21.706 111.847L21.6651 111.249C21.3893 111.268 20.9647 111.277 20.3867 111.277L20.3867 111.877ZM21.7071 111.847C22.7099 111.775 23.4431 111.304 23.8516 110.435L23.3086 110.18C23.0009 110.835 22.4711 111.191 21.664 111.249L21.7071 111.847ZM23.8506 110.437C24.0214 110.081 24.1047 109.691 24.1047 109.273L23.5047 109.273C23.5047 109.609 23.4382 109.91 23.3095 110.178L23.8506 110.437ZM24.1047 109.273C24.1047 108.347 23.7754 107.611 23.0922 107.116L22.7399 107.601C23.2416 107.965 23.5047 108.505 23.5047 109.273L24.1047 109.273ZM23.0931 107.116C22.8239 106.92 22.4547 106.789 22.0123 106.705C21.5661 106.621 21.0228 106.58 20.3867 106.58L20.3867 107.18C21.0007 107.18 21.5039 107.219 21.9008 107.294C22.3015 107.37 22.5719 107.479 22.7389 107.601L23.0931 107.116ZM20.3867 106.58H13.1699V107.18H20.3867V106.58ZM13.4699 106.88L13.4699 103.413L12.8699 103.413L12.8699 106.88L13.4699 106.88ZM13.1699 103.713H20.8555V103.113H13.1699V103.713ZM19.8301 86.6211C21.1516 86.6211 22.3773 87.0199 23.514 87.8256L23.861 87.3361C22.6279 86.4621 21.282 86.0211 19.8301 86.0211L19.8301 86.6211ZM23.5143 87.8258C24.6443 88.6249 25.4214 89.6427 25.8555 90.8831L26.4218 90.6849C25.9445 89.3211 25.0875 88.2035 23.8607 87.3359L23.5143 87.8258ZM25.8554 90.8828C26.0855 91.5418 26.2 92.2116 26.2 92.8933L26.8 92.8933C26.8 92.1428 26.6737 91.4063 26.4219 90.6851L25.8554 90.8828ZM26.2 92.8933V98.0105H26.8V92.8933H26.2ZM26.5 97.7105H13.1699V98.3105H26.5V97.7105ZM13.4699 98.0105L13.4699 92.8933L12.8699 92.8933L12.8699 98.0105L13.4699 98.0105ZM13.4699 92.8933C13.4699 91.7028 13.8006 90.6007 14.4661 89.5807L13.9636 89.2529C13.2358 90.3683 12.8699 91.5839 12.8699 92.8933L13.4699 92.8933ZM14.4668 89.5796C15.1142 88.5775 15.9777 87.8098 17.0626 87.2736L16.7968 86.7357C15.6161 87.3193 14.6697 88.1597 13.9628 89.254L14.4668 89.5796ZM17.0608 87.2745C17.9594 86.8377 18.8815 86.6211 19.8301 86.6211L19.8301 86.0211C18.7864 86.0211 17.7749 86.2602 16.7985 86.7349L17.0608 87.2745ZM19.8301 89.6246C18.8521 89.6246 17.9869 89.9 17.2474 90.4563L17.6081 90.9358C18.2358 90.4635 18.9721 90.2246 19.8301 90.2246L19.8301 89.6246ZM17.2469 90.4567C16.2519 91.2083 15.7703 92.325 15.7703 93.7527L16.3703 93.7527C16.3703 92.4721 16.7937 91.551 17.6086 90.9355L17.2469 90.4567ZM15.7703 93.7527V94.5437H16.3703V93.7527H15.7703ZM16.0703 94.8437H23.5996V94.2437H16.0703V94.8437ZM23.8996 94.5437V93.7527H23.2996V94.5437H23.8996ZM23.8996 93.7527C23.8996 92.3192 23.4184 91.2014 22.4219 90.4559L22.0625 90.9363C22.8759 91.5449 23.2996 92.4649 23.2996 93.7527L23.8996 93.7527ZM22.4215 90.4555C21.676 89.9 20.8081 89.6246 19.8301 89.6246L19.8301 90.2246C20.688 90.2246 21.4282 90.4635 22.0629 90.9366L22.4215 90.4555ZM26.2 78.0375V81.5043H26.8V78.0375H26.2ZM26.5 81.2043H13.1699V81.8043H26.5V81.2043ZM13.4699 81.5043V78.0375H12.8699V81.5043H13.4699ZM13.1699 78.3375H26.5V77.7375H13.1699V78.3375ZM19.8789 58.7746C21.6152 58.7746 23.1334 59.3498 24.4462 60.5064L24.8428 60.0561C23.4213 58.8038 21.7624 58.1746 19.8789 58.1746L19.8789 58.7746ZM24.446 60.5061C25.9287 61.8152 26.6785 63.5873 26.6785 65.8574L27.2785 65.8574C27.2785 63.44 26.4723 61.4947 24.8431 60.0563L24.446 60.5061ZM26.6785 65.8574C26.6785 68.1207 25.9289 69.8897 24.446 71.1989L24.8431 71.6487C26.4721 70.2105 27.2785 68.2686 27.2785 65.8574L26.6785 65.8574ZM24.4462 71.1987C23.1334 72.3552 21.6152 72.9305 19.8789 72.9305L19.8789 73.5305C21.7624 73.5305 23.4213 72.9013 24.8428 71.6489L24.4462 71.1987ZM19.8789 72.9305C19.0922 72.9305 18.2815 72.7757 17.4454 72.4614L17.2343 73.023C18.1299 73.3597 19.012 73.5305 19.8789 73.5305L19.8789 72.9305ZM17.4447 72.4611C16.6024 72.1468 15.8899 71.7284 15.3022 71.2088L14.9048 71.6583C15.5541 72.2325 16.3325 72.6865 17.235 73.0232L17.4447 72.4611ZM15.3021 71.2087C13.8193 69.8996 13.0695 68.1275 13.0695 65.8574L12.4695 65.8574C12.4695 68.2748 13.2757 70.2201 14.905 71.6585L15.3021 71.2087ZM13.0695 65.8574C13.0695 63.5873 13.8193 61.8152 15.3021 60.5061L14.905 60.0563C13.2757 61.4947 12.4695 63.44 12.4695 65.8574L13.0695 65.8574ZM15.3018 60.5064C16.6144 59.35 18.1358 58.7746 19.8789 58.7746L19.8789 58.1746C17.9892 58.1746 16.327 58.8036 14.9052 60.0561L15.3018 60.5064ZM19.8789 61.7781C18.8712 61.7781 17.9897 62.1024 17.2496 62.7509L17.645 63.2022C18.272 62.6528 19.0116 62.3781 19.8789 62.3781L19.8789 61.7781ZM17.249 62.7514C16.3126 63.576 15.8387 64.618 15.8387 65.8574L16.4387 65.8574C16.4387 64.7921 16.8372 63.9136 17.6455 63.2017L17.249 62.7514ZM15.8387 65.8574C15.8387 66.7123 16.0817 67.4917 16.5664 68.1871L17.0586 67.8441C16.6449 67.2505 16.4387 66.5911 16.4387 65.8574L15.8387 65.8574ZM16.5652 68.1855C17.0435 68.8818 17.6864 69.3794 18.4861 69.6741L18.6936 69.1111C18.0089 68.8588 17.4669 68.4385 17.0598 67.8458L16.5652 68.1855ZM18.4859 69.674C18.9412 69.8421 19.406 69.9269 19.8789 69.9269L19.8789 69.3269C19.4794 69.3269 19.0848 69.2555 18.6938 69.1111L18.4859 69.674ZM19.8789 69.9269C20.8507 69.9269 21.7227 69.6007 22.4845 68.9578L22.0975 68.4992C21.44 69.0542 20.704 69.3269 19.8789 69.3269L19.8789 69.9269ZM22.4846 68.9577C23.4324 68.1573 23.9094 67.1157 23.9094 65.8574L23.3094 65.8574C23.3094 66.9428 22.9074 67.8153 22.0975 68.4993L22.4846 68.9577ZM23.9094 65.8574C23.9094 64.6 23.4364 63.5558 22.4962 62.7489L22.1054 63.2042C22.9099 63.8947 23.3094 64.7711 23.3094 65.8574L23.9094 65.8574ZM22.4964 62.7491C21.7454 62.1034 20.8687 61.7781 19.8789 61.7781L19.8789 62.3781C20.725 62.3781 21.463 62.6518 22.1052 63.204L22.4964 62.7491ZM101.3 7.8H102.9V7.2H101.3V7.8ZM102.9 7.8C103.033 7.8 103.16 7.85267 103.254 7.94644L103.678 7.52218C103.472 7.31589 103.192 7.2 102.9 7.2V7.8ZM103.254 7.94644C103.347 8.04021 103.4 8.16739 103.4 8.3H104C104 8.00826 103.884 7.72847 103.678 7.52218L103.254 7.94644ZM103.4 8.3V9.1H104V8.3H103.4ZM103.4 9.1C103.4 9.31184 103.276 9.48712 103.091 9.56197L103.317 10.118C103.724 9.95287 104 9.56015 104 9.1H103.4ZM102.917 9.92588L103.413 11.5859L103.987 11.4141L103.491 9.75411L102.917 9.92588ZM103.7 11.2H102.9V11.8H103.7V11.2ZM103.187 11.4138L102.707 9.81379L102.133 9.9862L102.613 11.5862L103.187 11.4138ZM102.42 9.6H102.1V10.2H102.42V9.6ZM101.8 9.9V11.5H102.4V9.9H101.8ZM102.1 11.2H101.3V11.8H102.1V11.2ZM101.6 11.5V7.5H101V11.5H101.6ZM101.8 8.3V9.1H102.4V8.3H101.8ZM102.1 9.4H102.9V8.8H102.1V9.4ZM103.2 9.1V8.3H102.6V9.1H103.2ZM102.9 8H102.1V8.6H102.9V8ZM102.5 5.8C102.986 5.8 103.467 5.8957 103.916 6.08164L104.146 5.52731C103.624 5.31122 103.065 5.2 102.5 5.2V5.8ZM103.916 6.08164C104.365 6.26758 104.773 6.54012 105.116 6.8837L105.541 6.45944C105.141 6.06014 104.667 5.74341 104.146 5.52731L103.916 6.08164ZM105.116 6.8837C105.46 7.22728 105.732 7.63516 105.918 8.08407L106.473 7.85446C106.257 7.33276 105.94 6.85873 105.541 6.45944L105.116 6.8837ZM105.918 8.08407C106.104 8.53297 106.2 9.01411 106.2 9.5H106.8C106.8 8.93531 106.689 8.37616 106.473 7.85446L105.918 8.08407ZM106.2 9.5C106.2 10.4813 105.81 11.4224 105.116 12.1163L105.541 12.5406C106.347 11.7341 106.8 10.6404 106.8 9.5H106.2ZM105.116 12.1163C104.422 12.8102 103.481 13.2 102.5 13.2V13.8C103.64 13.8 104.734 13.347 105.541 12.5406L105.116 12.1163ZM102.5 13.2C102.014 13.2 101.533 13.1043 101.084 12.9184L100.854 13.4727C101.376 13.6888 101.935 13.8 102.5 13.8V13.2ZM101.084 12.9184C100.635 12.7324 100.227 12.4599 99.8837 12.1163L99.4594 12.5406C99.8587 12.9398 100.333 13.2566 100.854 13.4727L101.084 12.9184ZM99.8837 12.1163C99.1898 11.4224 98.8 10.4813 98.8 9.5H98.2C98.2 10.6404 98.653 11.7341 99.4594 12.5406L99.8837 12.1163ZM98.8 9.5C98.8 8.51869 99.1898 7.57758 99.8837 6.8837L99.4594 6.45944C98.653 7.26584 98.2 8.35957 98.2 9.5H98.8ZM99.8837 6.8837C100.578 6.18982 101.519 5.8 102.5 5.8V5.2C101.36 5.2 100.266 5.65303 99.4594 6.45944L99.8837 6.8837ZM102.5 6C101.572 6 100.682 6.36874 100.025 7.02512L100.449 7.44939C100.993 6.90553 101.731 6.6 102.5 6.6V6ZM100.025 7.02512C99.3687 7.6815 99 8.57174 99 9.5H99.6C99.6 8.73087 99.9055 7.99324 100.449 7.44939L100.025 7.02512ZM99 9.5C99 11.4294 100.566 13 102.5 13V12.4C100.898 12.4 99.6 11.0986 99.6 9.5H99ZM102.5 13C103.428 13 104.318 12.6312 104.975 11.9749L104.551 11.5506C104.007 12.0945 103.269 12.4 102.5 12.4V13ZM104.975 11.9749C105.631 11.3185 106 10.4283 106 9.5H105.4C105.4 10.2691 105.094 11.0068 104.551 11.5506L104.975 11.9749ZM106 9.5C106 8.57174 105.631 7.6815 104.975 7.02512L104.551 7.44939C105.094 7.99324 105.4 8.73087 105.4 9.5H106ZM104.975 7.02512C104.318 6.36874 103.428 6 102.5 6V6.6C103.269 6.6 104.007 6.90553 104.551 7.44939L104.975 7.02512ZM19.5 1.67665H69V1.07665H19.5V1.67665ZM65.9057 10.3599C65.04 10.8546 63.0712 11.8393 60.529 13.1105L60.7973 13.6472C63.3288 12.3813 65.319 11.3863 66.2033 10.8809L65.9057 10.3599ZM60.529 13.1105C56.7248 15.0128 51.6608 17.545 47.1883 19.9925C44.9522 21.2162 42.8602 22.4207 41.1455 23.5164C39.4382 24.6074 38.0807 25.6053 37.3337 26.4173L37.7753 26.8235C38.4647 26.0742 39.7628 25.112 41.4685 24.022C43.167 22.9367 45.2457 21.7396 47.4763 20.5189C51.9374 18.0776 56.9914 15.5503 60.7973 13.6472L60.529 13.1105ZM79.2933 150.349C79.4979 149.394 79.7549 148.33 79.9537 147.447L79.3684 147.315C79.173 148.183 78.9116 149.267 78.7067 150.223L79.2933 150.349ZM79.9537 147.447C81.201 141.91 82.1582 137.672 80.8478 131.558L80.2612 131.683C81.5414 137.658 80.6152 141.781 79.3684 147.315L79.9537 147.447ZM76.3117 75.2748C85.0657 60.6848 88.1561 51.2924 90.1969 45.089L89.6269 44.9015C87.5935 51.0829 84.5194 60.4291 75.7972 74.9661L76.3117 75.2748ZM90.1971 45.0882L90.1978 45.0862L89.6273 44.9003L89.6267 44.9023L90.1971 45.0882ZM88.1273 7.41147C88.5785 7.29865 89.02 6.97321 89.4288 6.5685C89.8436 6.15782 90.2543 5.63528 90.6407 5.08096C91.4137 3.97213 92.1125 2.70195 92.5719 1.86718L92.0463 1.57787C91.5848 2.41636 90.9005 3.65907 90.1485 4.73784C89.7725 5.27732 89.3852 5.76727 89.0066 6.14213C88.622 6.52296 88.2747 6.75614 87.9817 6.82938L88.1273 7.41147ZM92.5719 1.86723L92.5743 1.86291L92.0487 1.5735L92.0463 1.57782L92.5719 1.86723ZM92.5743 1.86286C92.6424 1.73902 92.7052 1.62508 92.7622 1.52234L92.2378 1.23096C92.18 1.33493 92.1167 1.44995 92.0486 1.57355L92.5743 1.86286ZM92.5 1.67665H99.5V1.07665H92.5V1.67665ZM72.709 42.6932C73.1729 44.5491 73.1343 45.7085 72.8956 46.5043C72.6583 47.2957 72.2141 47.7647 71.7601 48.2399L72.1939 48.6544C72.6493 48.1778 73.1879 47.6184 73.4703 46.6767C73.7514 45.7395 73.7695 44.4615 73.291 42.5477L72.709 42.6932ZM71.7601 48.2399C71.253 48.7707 70.7084 49.3299 70.6638 50.3347C70.6207 51.3058 71.0451 52.6458 72.2385 54.7675L72.7615 54.4733C71.5754 52.3648 71.2281 51.1522 71.2632 50.3613C71.2968 49.604 71.6805 49.1917 72.1939 48.6544L71.7601 48.2399ZM63.6822 69.3587C64.7388 68.5507 65.7689 67.5182 66.9785 66.3065L66.5539 65.8826C65.3362 67.1024 64.3361 68.1034 63.3178 68.8821L63.6822 69.3587ZM66.9785 66.3065C69.0765 64.2051 71.7584 61.5188 76.1744 58.3645L75.8256 57.8763C71.368 61.0603 68.6578 63.7752 66.5539 65.8826L66.9785 66.3065ZM76.2683 58.2546C76.8732 57.0449 77.1203 56.2348 77.3894 55.3531L76.8155 55.178C76.5489 56.0515 76.3135 56.8227 75.7317 57.9863L76.2683 58.2546ZM77.3894 55.3531C78.0138 53.3071 78.7835 50.7626 84.7539 41.2803L84.2461 40.9606C78.2598 50.4683 77.4611 53.0628 76.8155 55.178L77.3894 55.3531ZM82.7982 12.5873C82.6215 10.9977 82.4422 10.1237 82.2512 9.61821C82.154 9.36094 82.0478 9.18226 81.924 9.05111C81.7986 8.91834 81.6705 8.85219 81.5815 8.80511L81.3008 9.33539C81.3883 9.38173 81.4367 9.40901 81.4878 9.46309C81.5404 9.51879 81.6107 9.62039 81.6899 9.83025C81.8519 10.259 82.0255 11.0667 82.2018 12.6536L82.7982 12.5873ZM81.5815 8.80511C81.5066 8.76546 81.4638 8.74156 81.4209 8.70312C81.3802 8.66661 81.3281 8.60583 81.2683 8.48626L80.7317 8.75458C80.8189 8.92913 80.9139 9.05434 81.0203 9.14975C81.1245 9.24323 81.2286 9.29718 81.3008 9.33538L81.5815 8.80511ZM90.7723 41.5185C90.4074 42.5291 90.0381 43.6517 89.6282 44.8976L90.1982 45.0851C90.6088 43.837 90.9752 42.7232 91.3367 41.7223L90.7723 41.5185ZM89.6281 44.8981L89.6274 44.8999L90.1977 45.0866L90.1983 45.0847L89.6281 44.8981ZM80.8478 131.558C80.8089 131.376 80.7628 131.187 80.7102 130.991L80.1308 131.147C80.1811 131.334 80.2246 131.513 80.2612 131.683L80.8478 131.558ZM80.7205 131.069V131.002H80.1205V131.069H80.7205ZM80.4205 130.702H80.4021V131.302H80.4205V130.702ZM80.6914 130.922C79.867 127.923 77.4756 123.244 74.8263 118.615C72.171 113.976 69.2368 109.353 67.3041 106.454L66.8049 106.787C68.7316 109.677 71.6583 114.288 74.3055 118.913C76.9587 123.549 79.3114 128.166 80.1129 131.081L80.6914 130.922ZM80.4021 130.702H76.5767V131.302H80.4021V130.702ZM80.7205 137.904V131.069H80.1205V137.904H80.7205ZM80.7099 130.99L80.6916 130.923L80.1127 131.08L80.131 131.148L80.7099 130.99ZM66.2192 103.914L66.2231 103.934L66.812 103.819L66.808 103.799L66.2192 103.914ZM66.2231 103.934L66.7601 106.678L67.3489 106.563L66.812 103.819L66.2231 103.934Z" fill="#E25C00" mask="url(#path-1-inside-1)"/>
</g>
<defs>
<filter id="filter0_d" x="0" y="0.376648" width="115" height="160.966" filterUnits="userSpaceOnUse" color-interpolation-filters="sRGB">
<feFlood flood-opacity="0" result="BackgroundImageFix"/>
<feColorMatrix in="SourceAlpha" type="matrix" values="0 0 0 0 0 0 0 0 0 0 0 0 0 0 0 0 0 0 127 0"/>
<feOffset dx="-2" dy="5"/>
<feGaussianBlur stdDeviation="2.5"/>
<feColorMatrix type="matrix" values="0 0 0 0 0 0 0 0 0 0 0 0 0 0 0 0 0 0 0.25 0"/>
<feBlend mode="normal" in2="BackgroundImageFix" result="effect1_dropShadow"/>
<feBlend mode="normal" in="SourceGraphic" in2="effect1_dropShadow" result="shape"/>
</filter>
</defs>
</svg>
